<?xml version="1.0" encoding="UTF-8" standalone="no"?>
<!-- Created with Inkscape (http://www.inkscape.org/) -->

<svg
   xmlns:dc="http://purl.org/dc/elements/1.1/"
   xmlns:cc="http://creativecommons.org/ns#"
   xmlns:rdf="http://www.w3.org/1999/02/22-rdf-syntax-ns#"
   xmlns:svg="http://www.w3.org/2000/svg"
   xmlns="http://www.w3.org/2000/svg"
   xmlns:sodipodi="http://sodipodi.sourceforge.net/DTD/sodipodi-0.dtd"
   xmlns:inkscape="http://www.inkscape.org/namespaces/inkscape"
   width="1009.8496"
   height="2182.9993"
   viewBox="0 0 1009.8496 2182.9994"
   version="1.1"
   id="svg1681"
   inkscape:version="0.92.3 (2405546, 2018-03-11)"
   sodipodi:docname="monster_unimpressed.svg">
  <title
     id="title2322">unimpressed monster</title>
  <defs
     id="defs1675">
    <clipPath
       clipPathUnits="userSpaceOnUse"
       id="clipPath620">
      <path
         d="m 72.0303,419.386 h 36.2117 v -27.63 H 72.0303 Z"
         id="path618"
         inkscape:connector-curvature="0" />
    </clipPath>
    <clipPath
       clipPathUnits="userSpaceOnUse"
       id="clipPath660">
      <path
         d="m 76.231,448.814 h 26.935 v -5.43 H 76.231 Z"
         id="path658"
         inkscape:connector-curvature="0" />
    </clipPath>
  </defs>
  <sodipodi:namedview
     id="base"
     pagecolor="#ffffff"
     bordercolor="#666666"
     borderopacity="1.0"
     inkscape:pageopacity="0.0"
     inkscape:pageshadow="2"
     inkscape:zoom="0.35"
     inkscape:cx="1017.4477"
     inkscape:cy="1018.6107"
     inkscape:document-units="px"
     inkscape:current-layer="layer1"
     showgrid="false"
     units="px"
     inkscape:pagecheckerboard="true"
     inkscape:window-width="1920"
     inkscape:window-height="1017"
     inkscape:window-x="1912"
     inkscape:window-y="-8"
     inkscape:window-maximized="1" />
  <metadata
     id="metadata1678">
    <rdf:RDF>
      <cc:Work
         rdf:about="">
        <dc:format>image/svg+xml</dc:format>
        <dc:type
           rdf:resource="http://purl.org/dc/dcmitype/StillImage" />
        <dc:title>unimpressed monster</dc:title>
      </cc:Work>
    </rdf:RDF>
  </metadata>
  <g
     inkscape:label="Layer 1"
     inkscape:groupmode="layer"
     id="layer1"
     transform="translate(1243.6449,2102.7773)">
    <g
       id="g594"
       transform="matrix(8.8369654,0,0,-8.8369654,-1095.7064,-1113.0353)">
      <path
         d="m 0,0 c 2.464,-1.898 1.185,1.886 1.185,1.886 0,0 1.79,-3.445 3.277,-4.32 L 4.232,-2.613 C 3.938,-7.372 3.714,-11.991 3.57,-16.451 1.887,-67.616 9.435,-98.179 9.435,-98.179 c 0,0 3.351,-2.84 2.998,-4.079 -0.344,-1.189 -2.13,0.066 -2.29,0.177 0.229,-0.331 4.192,-6.043 3.33,-6.73 -0.882,-0.708 -4.768,4.084 -4.768,4.084 0,0 1.932,-5.846 1.04,-6.543 -0.831,-0.668 -3.404,5.19 -3.672,5.801 0.188,-0.611 2.189,-7.027 0.84,-6.863 -1.41,0.185 -5.362,9.577 -7.76,27.044 -2.955,21.439 -2.289,56.808 -1.681,76.096 0.166,5.239 0.328,9.288 0.404,11.558 l 0.421,0.149 C -1.375,1.584 -0.848,0.652 0,0"
         style="fill:#f19800;fill-opacity:1;fill-rule:nonzero;stroke:none"
         id="path596"
         inkscape:connector-curvature="0" />
    </g>
    <g
       id="g598"
       transform="matrix(8.8369654,0,0,-8.8369654,-474.44388,-209.35135)">
      <path
         d="m 0,0 c -0.161,-0.11 -1.954,-1.354 -2.291,-0.163 -0.346,1.241 3.022,4.061 3.022,4.061 0,0 7.854,31.016 6.32,82.941 -0.117,4.07 -0.296,8.271 -0.542,12.592 l -0.69,0.002 c 1.541,0.265 3.764,4.479 3.764,4.479 0,0 -1.302,-3.777 1.173,-1.894 0.852,0.647 1.386,1.566 1.718,2.505 l 0.42,-0.151 c 0.064,-1.981 0.174,-5.321 0.281,-9.631 C 13.688,75.959 14.277,38.887 11.09,16.727 8.588,-0.726 4.58,-10.094 3.169,-10.269 1.819,-10.425 3.858,-4.022 4.05,-3.412 3.778,-4.021 1.17,-9.864 0.343,-9.191 c -0.888,0.702 1.079,6.537 1.079,6.537 0,0 -3.904,-4.769 -4.792,-4.056 C -4.228,-6.018 -0.231,-0.33 0,0"
         style="fill:#f19800;fill-opacity:1;fill-rule:nonzero;stroke:none"
         id="path600"
         inkscape:connector-curvature="0" />
    </g>
    <g
       id="g602"
       transform="matrix(8.8369654,0,0,-8.8369654,-527.71575,20.871117)">
      <path
         d="m 0,0 c 0.145,-1.771 -10.151,-0.27 -10.873,2.473 -0.712,2.703 4.636,51.856 -1.883,98.806 2.511,0.332 4.863,0.785 7.054,1.359 1.204,-8.684 4.914,-41.965 0.896,-98.043 0,0 4.672,-2.824 4.806,-4.595"
         style="fill:#f19800;fill-opacity:1;fill-rule:nonzero;stroke:none"
         id="path604"
         inkscape:connector-curvature="0" />
    </g>
    <g
       id="g606"
       transform="matrix(8.8369654,0,0,-8.8369654,-831.40413,-874.69975)">
      <path
         d="m 0,0 c -4.381,-47.137 3.152,-95.87 2.563,-98.607 -0.587,-2.769 -10.813,-4.729 -10.758,-2.958 0.055,1.78 4.605,4.805 4.605,4.805 -6.553,55.94 -4.312,89.374 -3.516,98.021 C -4.897,0.745 -2.539,0.328 0,0"
         style="fill:#f19800;fill-opacity:1;fill-rule:nonzero;stroke:none"
         id="path608"
         inkscape:connector-curvature="0" />
    </g>
    <g
       id="g610"
       transform="matrix(8.8369654,0,0,-8.8369654,-1085.2347,-1129.7036)">
      <path
         d="m 0,0 c 0,0 1.279,-3.784 -1.185,-1.886 -0.848,0.652 -1.376,1.584 -1.703,2.515 L -3.309,0.48 c -0.076,-2.27 -0.238,-6.319 -0.404,-11.559 -5.552,9.197 -7.428,18.459 -7.223,20.219 -0.204,-1.15 -1.165,-5.097 -4.213,-1.108 -3.437,4.501 2.246,18.743 2.528,19.423 -0.2,-0.26 -1.596,-2.005 -3.883,-1.018 -2.477,1.066 -2.606,13.371 7.004,33.522 9.621,20.141 26.09,29.602 45.747,28.882 52.015,-1.925 59.965,-61.82 58.9,-66.716 -1.075,-4.947 -6.023,-1.042 -6.023,-1.042 0.148,-7.231 -0.519,-19.719 -6.832,-30.49 -0.106,4.31 -0.217,7.65 -0.28,9.631 l -0.42,0.151 C 81.259,-0.564 80.726,-1.483 79.874,-2.13 77.398,-4.013 78.7,-0.236 78.7,-0.236 c 0,0 -2.222,-4.214 -3.763,-4.479 l 0.689,-0.002 c 0.247,-4.321 0.425,-8.522 0.543,-12.592 -4.534,-4.466 -10.625,-8.128 -18.781,-10.253 -2.192,-0.574 -4.543,-1.027 -7.055,-1.359 -4.791,-0.646 -10.172,-0.829 -16.211,-0.442 -1.879,0.126 -3.679,0.292 -5.398,0.507 -2.539,0.327 -4.898,0.744 -7.106,1.261 -8.644,1.996 -14.824,5.354 -19.233,9.258 0.144,4.46 0.367,9.079 0.662,13.837 l 0.23,0.18 C 1.79,-3.445 0,0 0,0"
         style="fill:#fbc900;fill-opacity:1;fill-rule:nonzero;stroke:none"
         id="path612"
         inkscape:connector-curvature="0" />
    </g>
    <g
       transform="matrix(8.8369654,0,0,-8.8369654,-1559.4359,2075.2499)"
       id="g614">
      <g
         id="g616" />
      <g
         id="g628">
        <g
           clip-path="url(#clipPath620)"
           id="g626"
           style="opacity:0.69999701">
          <g
             transform="translate(74.5786,419.3857)"
             id="g624">
            <path
               d="m 0,0 c -1.599,-2.719 -2.538,-5.882 -2.548,-9.274 -0.031,-10.109 8.051,-18.325 18.05,-18.355 10,-0.03 18.131,8.137 18.161,18.246 0.01,3.392 -0.909,6.56 -2.493,9.289 z"
               style="fill:#f2a306;fill-opacity:1;fill-rule:nonzero;stroke:none"
               id="path622"
               inkscape:connector-curvature="0" />
          </g>
        </g>
      </g>
    </g>
    <g
       id="g630"
       transform="matrix(8.8369654,0,0,-8.8369654,-892.80162,-1624.3059)">
      <path
         d="m 0,0 c -1.51,-2.489 -2.397,-5.384 -2.406,-8.488 -0.028,-9.252 7.608,-16.773 17.055,-16.802 9.447,-0.028 17.128,7.447 17.156,16.699 0.009,3.105 -0.86,6.004 -2.356,8.503 z"
         style="fill:#ffffff;fill-opacity:1;fill-rule:nonzero;stroke:none"
         id="path632"
         inkscape:connector-curvature="0" />
    </g>
    <g
       id="g634"
       transform="matrix(8.8369654,0,0,-8.8369654,-795.53852,-1619.3095)">
      <path
         d="m 0,0 c 0,0 -0.934,-16.454 4.196,-16.47 5.133,-0.015 3.059,16.448 3.059,16.448 z"
         style="fill:#1e120d;fill-opacity:1;fill-rule:nonzero;stroke:none"
         id="path636"
         inkscape:connector-curvature="0" />
    </g>
    <g
       id="g638"
       transform="matrix(8.8369654,0,0,-8.8369654,-796.88519,-1691.0188)">
      <path
         d="m 0,0 c -4.72,0.351 -14.451,0.457 -16.464,-2.488 -2.014,-2.942 -0.784,-5.953 10.539,-6.46 11.324,-0.506 26.775,-0.906 29.614,0.973 2.836,1.878 0.381,9.082 -1.27,9.441 -1.651,0.359 -3.899,-1.993 -3.899,-1.993 0,0 -1.292,1.89 -3.534,2.016 -2.24,0.125 -2.836,-1.762 -2.836,-1.762 0,0 -7.196,-0.096 -12.15,0.273"
         style="fill:#e17616;fill-opacity:1;fill-rule:nonzero;stroke:none"
         id="path640"
         inkscape:connector-curvature="0" />
    </g>
    <g
       id="g642"
       transform="matrix(8.8369654,0,0,-8.8369654,-873.01764,-1331.8103)">
      <path
         d="m 0,0 c 0,0 -2.993,5.317 -4.231,5.321 -1.239,0.003 -2.86,-9.368 -2.86,-9.368 z"
         style="fill:#ffffff;fill-opacity:1;fill-rule:nonzero;stroke:none"
         id="path644"
         inkscape:connector-curvature="0" />
    </g>
    <g
       id="g646"
       transform="matrix(8.8369654,0,0,-8.8369654,-544.71621,-1307.3708)">
      <path
         d="M 0,0 C 0,0 -3.008,8.166 -4.237,8.026 -5.468,7.887 -7.954,2.854 -7.954,2.854 Z"
         style="fill:#ffffff;fill-opacity:1;fill-rule:nonzero;stroke:none"
         id="path648"
         inkscape:connector-curvature="0" />
    </g>
    <g
       id="g650"
       transform="matrix(8.8369654,0,0,-8.8369654,-981.37373,-1271.384)">
      <path
         d="m 0,0 c 0,0 0.039,0.043 0.114,0.126 0.083,0.086 0.207,0.215 0.369,0.382 0.32,0.314 0.786,0.776 1.426,1.298 0.638,0.526 1.428,1.147 2.381,1.787 0.943,0.657 2.049,1.341 3.314,1.974 0.621,0.341 1.291,0.646 1.987,0.958 0.688,0.332 1.426,0.609 2.183,0.902 1.513,0.584 3.151,1.1 4.878,1.484 0.857,0.231 1.745,0.374 2.642,0.53 0.894,0.183 1.811,0.277 2.735,0.361 0.462,0.046 0.926,0.093 1.391,0.139 0.466,0.031 0.934,0.037 1.403,0.056 l 1.409,0.048 c 0.25,0.004 0.437,0.026 0.739,0.014 l 0.685,-0.023 C 28.575,9.997 29.468,9.996 30.404,9.926 31.343,9.847 32.278,9.769 33.207,9.69 34.118,9.564 35.022,9.44 35.916,9.316 36.802,9.153 37.678,8.992 38.539,8.833 41.971,8.124 45.088,7.117 47.698,6.122 50.311,5.123 52.382,4.04 53.813,3.256 54.528,2.862 55.071,2.512 55.444,2.276 55.821,2.024 56.022,1.89 56.022,1.89 56.385,1.648 56.482,1.157 56.24,0.794 56.015,0.457 55.575,0.349 55.223,0.53 l -0.049,0.025 c 0,0 -0.192,0.098 -0.551,0.283 C 54.25,1.025 53.691,1.276 52.98,1.603 51.557,2.255 49.459,3.061 46.906,3.893 45.628,4.307 44.23,4.71 42.738,5.081 41.247,5.455 39.655,5.757 38.011,6.068 37.184,6.197 36.344,6.329 35.493,6.462 34.638,6.561 33.772,6.661 32.9,6.762 32.036,6.827 31.165,6.893 30.291,6.959 29.412,7.019 28.477,7.014 27.57,7.044 L 26.886,7.061 C 26.731,7.07 26.462,7.053 26.256,7.051 L 24.933,7.018 C 24.493,7.003 24.052,7.003 23.615,6.979 L 22.311,6.859 C 21.443,6.792 20.585,6.702 19.746,6.56 18.902,6.437 18.066,6.329 17.262,6.135 16.453,5.962 15.652,5.809 14.89,5.581 14.12,5.376 13.359,5.196 12.645,4.941 11.923,4.706 11.216,4.486 10.557,4.21 9.89,3.954 9.245,3.703 8.647,3.416 8.039,3.15 7.466,2.875 6.933,2.591 6.385,2.332 5.879,2.061 5.411,1.792 4.464,1.273 3.675,0.76 3.037,0.324 2.402,-0.116 1.914,-0.474 1.593,-0.727 1.44,-0.85 1.323,-0.944 1.244,-1.008 1.162,-1.08 1.119,-1.117 1.119,-1.117 L 1.108,-1.127 C 0.778,-1.415 0.278,-1.38 -0.009,-1.05 -0.275,-0.745 -0.265,-0.293 0,0"
         style="fill:#1e120d;fill-opacity:1;fill-rule:nonzero;stroke:none"
         id="path652"
         inkscape:connector-curvature="0" />
    </g>
    <g
       transform="matrix(8.8369654,0,0,-8.8369654,-1559.4359,2075.2499)"
       id="g654">
      <g
         id="g656" />
      <g
         id="g668">
        <g
           clip-path="url(#clipPath660)"
           id="g666"
           style="opacity:0.10000598">
          <g
             transform="translate(82.0405,448.7808)"
             id="g664">
            <path
               d="M 0,0 C -3.147,0.049 -6.631,-2.105 -5.637,-3.858 -4.642,-5.611 18.605,-6.556 20.866,-2.813 23.128,0.931 10.125,-0.155 0,0"
               style="fill:#650e81;fill-opacity:1;fill-rule:nonzero;stroke:none"
               id="path662"
               inkscape:connector-curvature="0" />
          </g>
        </g>
      </g>
    </g>
    <g
       id="g670"
       transform="matrix(8.8369654,0,0,-8.8369654,-780.00923,-2102.4555)">
      <path
         d="m 0,0 c -2.079,-0.56 -11.044,-24.033 -9.636,-26.514 1.409,-2.482 20.045,-2.892 21.475,1.351 C 13.268,-20.92 3.896,1.05 0,0"
         style="fill:#dd667f;fill-opacity:1;fill-rule:nonzero;stroke:none"
         id="path672"
         inkscape:connector-curvature="0" />
    </g>
    <g
       id="g674"
       transform="matrix(8.8369654,0,0,-8.8369654,-807.44363,-2047.5011)">
      <path
         d="m 0,0 c 0,0 0.518,-0.013 1.296,-0.033 0.386,-0.027 0.838,-0.012 1.318,-0.034 0.482,-0.034 0.991,0 1.502,-0.006 0.51,-0.014 1.011,0.04 1.487,0.053 0.466,0.056 0.902,0.106 1.275,0.15 0.185,0.029 0.339,0.088 0.487,0.119 0.146,0.037 0.274,0.07 0.379,0.096 0.216,0.049 0.34,0.077 0.34,0.077 L 8.148,0.436 C 8.288,0.467 8.427,0.379 8.458,0.24 8.484,0.122 8.426,0.005 8.324,-0.048 c 0,0 -0.121,-0.063 -0.334,-0.173 C 7.88,-0.273 7.748,-0.337 7.595,-0.411 7.441,-0.477 7.269,-0.584 7.071,-0.634 6.873,-0.683 6.657,-0.736 6.43,-0.792 6.202,-0.84 5.96,-0.924 5.708,-0.948 5.206,-0.984 4.666,-1.062 4.13,-1.069 c -0.535,0.01 -1.071,0.012 -1.568,0.064 -0.499,0.029 -0.958,0.114 -1.351,0.18 -0.789,0.136 -1.295,0.304 -1.296,0.304 l -0.006,0.002 C -0.23,-0.472 -0.306,-0.321 -0.259,-0.182 -0.221,-0.068 -0.114,0.002 0,0"
         style="fill:#a7435c;fill-opacity:1;fill-rule:nonzero;stroke:none"
         id="path676"
         inkscape:connector-curvature="0" />
    </g>
    <g
       id="g678"
       transform="matrix(8.8369654,0,0,-8.8369654,-831.83624,-1968.3175)">
      <path
         d="m 0,0 c 0,0 0.951,-0.137 2.385,-0.305 0.715,-0.093 1.553,-0.156 2.447,-0.242 0.894,-0.075 1.85,-0.137 2.803,-0.145 0.477,-0.026 0.952,-0.018 1.42,-0.013 0.469,-0.007 0.924,0.043 1.369,0.064 0.444,0.028 0.865,0.088 1.27,0.125 0.403,0.046 0.772,0.137 1.121,0.195 0.348,0.064 0.647,0.173 0.926,0.239 0.281,0.063 0.507,0.161 0.694,0.242 0.38,0.151 0.598,0.237 0.598,0.237 l 0.038,0.015 c 0.134,0.054 0.286,-0.012 0.34,-0.146 0.049,-0.124 -0.002,-0.262 -0.115,-0.325 0,0 -0.218,-0.124 -0.601,-0.341 -0.193,-0.109 -0.429,-0.241 -0.717,-0.339 -0.287,-0.102 -0.603,-0.26 -0.967,-0.345 -0.363,-0.087 -0.755,-0.209 -1.175,-0.285 -0.421,-0.062 -0.864,-0.173 -1.327,-0.202 -0.462,-0.033 -0.941,-0.095 -1.426,-0.097 -0.485,-0.017 -0.979,-0.035 -1.47,-0.02 -0.985,0.014 -1.962,0.112 -2.875,0.206 -0.914,0.094 -1.756,0.258 -2.476,0.39 -1.438,0.282 -2.378,0.577 -2.377,0.577 -0.14,0.044 -0.218,0.192 -0.175,0.331 C -0.251,-0.058 -0.126,0.018 0,0"
         style="fill:#a7435c;fill-opacity:1;fill-rule:nonzero;stroke:none"
         id="path680"
         inkscape:connector-curvature="0" />
    </g>
    <text
       xml:space="preserve"
       style="font-style:normal;font-variant:normal;font-weight:normal;font-stretch:normal;font-size:37.33333206px;line-height:150;font-family:sans-serif;-inkscape-font-specification:sans-serif;letter-spacing:0px;word-spacing:0px;fill:#000000;fill-opacity:1;stroke:none"
       x="-913.6521"
       y="72.456322"
       id="text2320"><tspan
         sodipodi:role="line"
         id="tspan2318"
         x="-913.6521"
         y="72.456322"
         style="font-size:37.33333206px">image by Freepik (www.freepik.com)</tspan></text>
  </g>
</svg>
