<?xml version="1.0" encoding="UTF-8" standalone="no"?>
<!-- Created with Inkscape (http://www.inkscape.org/) -->

<svg
   xmlns:dc="http://purl.org/dc/elements/1.1/"
   xmlns:cc="http://creativecommons.org/ns#"
   xmlns:rdf="http://www.w3.org/1999/02/22-rdf-syntax-ns#"
   xmlns:svg="http://www.w3.org/2000/svg"
   xmlns="http://www.w3.org/2000/svg"
   xmlns:xlink="http://www.w3.org/1999/xlink"
   xmlns:sodipodi="http://sodipodi.sourceforge.net/DTD/sodipodi-0.dtd"
   xmlns:inkscape="http://www.inkscape.org/namespaces/inkscape"
   width="740.30261"
   height="1057.9005"
   viewBox="0 0 740.30261 1057.9005"
   version="1.1"
   id="svg1832"
   inkscape:version="0.92.3 (2405546, 2018-03-11)"
   sodipodi:docname="monster_angry.svg">
  <title
     id="title2660">angry monster</title>
  <defs
     id="defs1826">
    <clipPath
       clipPathUnits="userSpaceOnUse"
       id="clipPath264">
      <path
         d="m 1176.27,3519.89 c -31.59,0 -64.8,1.57 -98.72,5.42 -181.323,20.64 -273.683,91.41 -273.683,91.41 l 82.653,29.69 c 20.828,4.15 43.07,7.26 66.914,9.23 9.14,0.76 18.468,1.42 28.086,1.8 11.984,0.53 23.79,0.78 35.37,0.78 210.34,0 352.63,-83.82 378.27,-114.82 -39.43,-8.61 -121.44,-23.51 -218.89,-23.51"
         id="path262"
         inkscape:connector-curvature="0" />
    </clipPath>
    <clipPath
       clipPathUnits="userSpaceOnUse"
       id="clipPath270">
      <path
         d="m 803.867,3519.89 h 591.293 v 138.332 H 803.867 Z"
         id="path268"
         inkscape:connector-curvature="0" />
    </clipPath>
    <linearGradient
       x1="0"
       y1="0"
       x2="1"
       y2="0"
       gradientUnits="userSpaceOnUse"
       gradientTransform="matrix(0,-1491.35,-1491.35,0,1062.37,3658.22)"
       spreadMethod="pad"
       id="linearGradient276">
      <stop
         style="stop-opacity:1;stop-color:#f25861"
         offset="0"
         id="stop272" />
      <stop
         style="stop-opacity:1;stop-color:#c93b44"
         offset="1"
         id="stop274" />
    </linearGradient>
    <clipPath
       clipPathUnits="userSpaceOnUse"
       id="clipPath208">
      <path
         d="m 1376.6,2916.33 c -2.77,0 -5.63,7.89 -6.43,17.81 -0.81,10.05 0.81,18.39 3.62,18.62 0.04,0 0.08,0 0.12,0 2.77,0 5.63,-7.88 6.43,-17.8 0.81,-10.06 -0.8,-18.4 -3.62,-18.62 -0.04,-0.01 -0.08,-0.01 -0.12,-0.01"
         id="path206"
         inkscape:connector-curvature="0" />
    </clipPath>
    <linearGradient
       x1="0"
       y1="0"
       x2="1"
       y2="0"
       gradientUnits="userSpaceOnUse"
       gradientTransform="matrix(0,-1491.35,-1491.35,0,1062.37,3658.22)"
       spreadMethod="pad"
       id="linearGradient214">
      <stop
         style="stop-opacity:1;stop-color:#f57780"
         offset="0"
         id="stop210" />
      <stop
         style="stop-opacity:1;stop-color:#d35c68"
         offset="1"
         id="stop212" />
    </linearGradient>
    <clipPath
       clipPathUnits="userSpaceOnUse"
       id="clipPath192">
      <path
         d="m 1222.59,2715.38 c -29.69,0 -51.92,5.15 -51.92,5.15 0,0 0.53,-0.01 1.52,-0.01 12.78,0 102.98,2.02 153.98,58.12 54.98,60.48 49.92,133.91 49.92,133.91 0,0 22.04,-78 -31.86,-147.83 -31.29,-40.55 -82.84,-49.34 -121.64,-49.34"
         id="path190"
         inkscape:connector-curvature="0" />
    </clipPath>
    <clipPath
       clipPathUnits="userSpaceOnUse"
       id="clipPath174">
      <path
         d="m 1245.54,2642.56 c -2.4,0 -4.86,0.07 -7.33,0.21 -64.87,3.75 -105.24,72.65 -105.24,72.65 0,0 17.92,-17.66 55.83,-23.02 14.97,-3.94 32.15,-6.79 50.53,-6.79 21.57,0 44.78,3.93 67.99,14.62 50.41,23.24 73.25,67.62 83.54,100.92 0.84,2.54 1.3,4.28 1.49,5.04 0.02,0.07 0.04,0.14 0.06,0.21 -1.24,-6.43 -32.78,-163.84 -146.87,-163.84"
         id="path172"
         inkscape:connector-curvature="0" />
    </clipPath>
    <linearGradient
       x1="0"
       y1="0"
       x2="1"
       y2="0"
       gradientUnits="userSpaceOnUse"
       gradientTransform="matrix(0,-1491.35,-1491.35,0,1062.37,3658.22)"
       spreadMethod="pad"
       id="linearGradient180">
      <stop
         style="stop-opacity:1;stop-color:#de2526"
         offset="0"
         id="stop176" />
      <stop
         style="stop-opacity:1;stop-color:#b91d24"
         offset="1"
         id="stop178" />
    </linearGradient>
    <clipPath
       clipPathUnits="userSpaceOnUse"
       id="clipPath148">
      <path
         d="m 800.098,2166.88 c 0,0 -74.024,155.52 -74,428.51 0,2.7 0.004,5.4 0.019,8.12 0.02,3.12 0.028,6.22 0.028,9.29 0.011,94.71 -8.293,167.44 -20.625,230.29 -3.852,19.61 -8.094,38.26 -12.598,56.31 -22.328,89.48 -51.109,164.28 -70.473,269 -7.406,40.16 -12.379,83.73 -12.379,127.77 0,59.63 9.121,120.11 33.68,174.1 -3.02,-13.95 -49.387,-237.97 50.98,-409.02 103.672,-176.62 171.813,-544.17 304.977,-572.44 30.453,-6.46 60.193,-8.49 88.763,-8.49 24.18,0 47.53,1.45 69.78,2.9 22.25,1.46 43.41,2.91 63.21,2.91 39.4,0 73.42,-5.75 100,-28.7 68.42,-59.08 5.19,-231.24 3.97,-234.53 h -0.01 c 0,0 0,0 -0.01,0 -1.05,15.86 -8.81,98.41 -52.58,160.73 -16.97,24.1 -54.81,33.49 -99.01,33.49 -82.51,0 -187.207,-32.68 -219.914,-63.36 -50.129,-47.03 -130.011,-173.82 -130.34,-174.35 -0.019,0 -0.031,0 -0.031,0 l -5.449,-2.93 -17.988,-9.6"
         id="path146"
         inkscape:connector-curvature="0" />
    </clipPath>
    <clipPath
       clipPathUnits="userSpaceOnUse"
       id="clipPath154">
      <path
         d="m 594.363,2166.88 h 795.516 V 3470.27 H 594.363 Z"
         id="path152"
         inkscape:connector-curvature="0" />
    </clipPath>
    <linearGradient
       x1="0"
       y1="0"
       x2="1"
       y2="0"
       gradientUnits="userSpaceOnUse"
       gradientTransform="matrix(0,-1491.35,-1491.35,0,1062.37,3658.22)"
       spreadMethod="pad"
       id="linearGradient160">
      <stop
         style="stop-opacity:1;stop-color:#c21e25"
         offset="0"
         id="stop156" />
      <stop
         style="stop-opacity:1;stop-color:#b91d24"
         offset="1"
         id="stop158" />
    </linearGradient>
    <clipPath
       clipPathUnits="userSpaceOnUse"
       id="clipPath122">
      <path
         d="m 1287.35,3217.45 c 0,-35.77 -21.29,-64.75 -47.55,-64.75 -26.26,0 -47.54,28.98 -47.54,64.75 0,35.76 21.28,64.74 47.54,64.74 26.26,0 47.55,-28.98 47.55,-64.74 z"
         id="path120"
         inkscape:connector-curvature="0" />
    </clipPath>
    <linearGradient
       x1="0"
       y1="0"
       x2="1"
       y2="0"
       gradientUnits="userSpaceOnUse"
       gradientTransform="matrix(95.0917,0,0,-95.0917,1192.26,3217.45)"
       spreadMethod="pad"
       id="linearGradient128">
      <stop
         style="stop-opacity:1;stop-color:#a02c1f"
         offset="0"
         id="stop124" />
      <stop
         style="stop-opacity:1;stop-color:#651317"
         offset="1"
         id="stop126" />
    </linearGradient>
    <clipPath
       clipPathUnits="userSpaceOnUse"
       id="clipPath96">
      <path
         d="m 1132.97,3196.46 c 0,-64.27 -38.26,-116.36 -85.45,-116.36 -47.19,0 -85.446,52.09 -85.446,116.36 0,64.26 38.256,116.36 85.446,116.36 47.19,0 85.45,-52.1 85.45,-116.36 z"
         id="path94"
         inkscape:connector-curvature="0" />
    </clipPath>
    <linearGradient
       x1="0"
       y1="0"
       x2="1"
       y2="0"
       gradientUnits="userSpaceOnUse"
       gradientTransform="matrix(170.891,0,0,-170.891,962.078,3196.46)"
       spreadMethod="pad"
       id="linearGradient102">
      <stop
         style="stop-opacity:1;stop-color:#a02c1f"
         offset="0"
         id="stop98" />
      <stop
         style="stop-opacity:1;stop-color:#651317"
         offset="1"
         id="stop100" />
    </linearGradient>
    <clipPath
       clipPathUnits="userSpaceOnUse"
       id="clipPath68">
      <path
         d="m 1363.87,2220.21 h -0.02 c 0.01,0.02 0.02,0.03 0.02,0.03 l -38.44,2.66 c 1.22,3.29 64.45,175.45 -3.97,234.53 -26.58,22.95 -60.6,28.7 -100,28.7 -19.8,0 -40.96,-1.45 -63.21,-2.91 -22.25,-1.45 -45.6,-2.9 -69.78,-2.9 -28.57,0 -58.31,2.03 -88.763,8.49 -133.164,28.27 -201.305,395.82 -304.977,572.44 -100.367,171.05 -54,395.07 -50.98,409.02 -24.559,-53.99 -33.68,-114.47 -33.68,-174.1 0,23.35 1.399,46.82 4.575,69.99 v 0 c 2.566,18.73 6.3,37.27 11.394,55.37 4.695,16.68 10.547,32.98 17.711,48.74 v 0.19 l 0.184,0.47 c 10.398,22.72 23.531,44.29 39.875,64.18 42.769,52.02 107.523,92.41 202.711,111.3 20.828,4.15 43.07,7.26 66.914,9.23 9.14,0.76 18.468,1.42 28.086,1.8 11.984,0.53 23.79,0.78 35.37,0.78 76.61,0 144.2,-11.12 200.41,-26.76 v 0 c 46.3,-12.88 84.87,-28.82 114.42,-44.14 v 0 c 33.07,-17.14 54.83,-33.51 63.44,-43.92 2.26,-2.73 3.67,-5.09 4.05,-6.88 5.46,-23.56 3.2,-58.52 -15.74,-127.6 -18.85,-69.08 -3.87,-188.12 73.04,-298.47 77,-110.27 59.75,-155.13 47.12,-266.62 -12.53,-111.49 -40.81,-229.3 -43.92,-365.95 -3.2,-136.65 -95.84,-257.67 -95.84,-257.67 m -230.9,495.21 c 0,0 40.37,-68.9 105.24,-72.65 2.47,-0.14 4.93,-0.21 7.33,-0.21 114.09,0 145.63,157.41 146.87,163.84 6.08,21.64 6.8,37.43 6.8,37.43 0,0 -11.78,-94.25 -102.18,-128.41 -30.13,-11.39 -58.4,-15.18 -82.71,-15.18 -48.61,0 -81.35,15.18 -81.35,15.18 0,0 22.39,-14.22 55.83,-23.02 -37.91,5.36 -55.83,23.02 -55.83,23.02 m 37.7,5.11 c 0,0 22.23,-5.15 51.92,-5.15 38.8,0 90.35,8.79 121.64,49.34 53.9,69.83 31.86,147.83 31.86,147.83 0,0 5.06,-73.43 -49.92,-133.91 -51,-56.1 -141.2,-58.12 -153.98,-58.12 -0.99,0 -1.52,0.01 -1.52,0.01 m 203.24,232.23 c -0.04,0 -0.08,0 -0.12,0 -2.81,-0.23 -4.43,-8.57 -3.62,-18.62 0.8,-9.92 3.66,-17.81 6.43,-17.81 0.04,0 0.08,0 0.12,0.01 2.82,0.22 4.43,8.56 3.62,18.62 -0.8,9.92 -3.66,17.8 -6.43,17.8 m -357.02,705.46 c -11.58,0 -23.386,-0.25 -35.37,-0.78 -9.618,-0.38 -18.946,-1.04 -28.086,-1.8 -23.844,-1.97 -46.086,-5.08 -66.914,-9.23 l -82.653,-29.69 c 0,0 92.36,-70.77 273.683,-91.41 33.92,-3.85 67.13,-5.42 98.72,-5.42 97.45,0 179.46,14.9 218.89,23.51 -25.64,31 -167.93,114.82 -378.27,114.82 m 373.97,-857.07 c 0.53,1.71 1.03,3.39 1.49,5.04 -0.19,-0.76 -0.65,-2.5 -1.49,-5.04"
         id="path66"
         inkscape:connector-curvature="0" />
    </clipPath>
    <linearGradient
       x1="0"
       y1="0"
       x2="1"
       y2="0"
       gradientUnits="userSpaceOnUse"
       gradientTransform="matrix(0,-1491.35,-1491.35,0,1062.37,3658.22)"
       spreadMethod="pad"
       id="linearGradient74">
      <stop
         style="stop-opacity:1;stop-color:#ef373b"
         offset="0"
         id="stop70" />
      <stop
         style="stop-opacity:1;stop-color:#b91d24"
         offset="1"
         id="stop72" />
    </linearGradient>
    <clipPath
       clipPathUnits="userSpaceOnUse"
       id="clipPath52">
      <path
         d="m 579.262,2731.05 113.66,168.35 c 4.504,-18.05 8.746,-36.7 12.598,-56.31 l -7.825,-6.97 c -32.132,-27.64 -109.41,-94.42 -118.433,-105.07"
         id="path50"
         inkscape:connector-curvature="0" />
    </clipPath>
    <linearGradient
       x1="0"
       y1="0"
       x2="1"
       y2="0"
       gradientUnits="userSpaceOnUse"
       gradientTransform="matrix(230.432,0,0,-230.432,481.187,2764.72)"
       spreadMethod="pad"
       id="linearGradient58">
      <stop
         style="stop-opacity:1;stop-color:#de2526"
         offset="0"
         id="stop54" />
      <stop
         style="stop-opacity:1;stop-color:#b91d24"
         offset="1"
         id="stop56" />
    </linearGradient>
    <clipPath
       clipPathUnits="userSpaceOnUse"
       id="clipPath34">
      <path
         d="m 508.695,2575.45 c -6.386,0 -11.515,13.92 -5.394,49.48 6.187,35.93 12.074,47.71 12.074,47.71 0,0 -8.539,-10.31 -15.02,-23.27 -6.199,-12.4 -9.703,-36.67 -15.671,-36.67 -0.27,0 -0.543,0.05 -0.821,0.15 -6.48,2.36 -1.644,44.94 19.496,77.32 39.567,60.62 48.047,67.19 63.75,89.97 14.106,20.45 95.832,144.36 112.368,169.43 4.644,-16.39 9.164,-33.01 13.445,-50.17 l -113.66,-168.35 c -0.528,-0.62 -0.821,-1.05 -0.86,-1.27 -0.882,-5.01 17.672,-39.76 22.969,-54.19 5.305,-14.44 11.488,-37.11 5.895,-39.76 -0.821,-0.39 -1.629,-0.58 -2.43,-0.58 -4.652,0 -8.813,6.34 -10.828,15.89 -2.195,10.44 -14.125,23.18 -17.875,23.18 -0.27,0 -0.5,-0.07 -0.68,-0.21 -2.644,-2.06 -3.828,-30.92 -5.004,-43.88 -1.152,-12.69 -0.047,-39.8 -6.09,-39.8 -0.125,0 -0.257,0.02 -0.39,0.04 -6.481,1.18 -7.364,19.14 -9.129,33.28 -1.77,14.14 -1.469,36.82 -1.469,36.82 0,0 -3.242,-27.1 -5.598,-39.76 -2.359,-12.67 -0.589,-43.59 -8.246,-43.89 -0.086,0 -0.168,0 -0.25,0 -7.418,0 -8.004,13.02 -8.589,44.77 -0.586,32.1 5.011,44.17 5.011,44.17 0,0 -9.133,-17.08 -15.316,-42.7 -6.184,-25.62 -5.008,-47.41 -11.488,-47.71 -0.067,0 -0.133,0 -0.2,0 m 189,260.67 7.825,6.97 c 0.011,-0.08 0.023,-0.14 0.039,-0.22 -2.145,-1.84 -4.793,-4.12 -7.864,-6.75"
         id="path32"
         inkscape:connector-curvature="0" />
    </clipPath>
    <linearGradient
       x1="0"
       y1="0"
       x2="1"
       y2="0"
       gradientUnits="userSpaceOnUse"
       gradientTransform="matrix(230.432,0,0,-230.432,481.187,2764.72)"
       spreadMethod="pad"
       id="linearGradient40">
      <stop
         style="stop-opacity:1;stop-color:#ef373b"
         offset="0"
         id="stop36" />
      <stop
         style="stop-opacity:1;stop-color:#b91d24"
         offset="1"
         id="stop38" />
    </linearGradient>
    <linearGradient
       inkscape:collect="always"
       xlink:href="#linearGradient214"
       id="linearGradient2644"
       gradientUnits="userSpaceOnUse"
       gradientTransform="matrix(0,-1491.35,-1491.35,0,1062.37,3658.22)"
       x1="0"
       y1="0"
       x2="1"
       y2="0"
       spreadMethod="pad" />
    <linearGradient
       inkscape:collect="always"
       xlink:href="#linearGradient214"
       id="linearGradient2646"
       gradientUnits="userSpaceOnUse"
       gradientTransform="matrix(0,-1491.35,-1491.35,0,1062.37,3658.22)"
       x1="0"
       y1="0"
       x2="1"
       y2="0"
       spreadMethod="pad" />
  </defs>
  <sodipodi:namedview
     id="base"
     pagecolor="#ffffff"
     bordercolor="#666666"
     borderopacity="1.0"
     inkscape:pageopacity="0.0"
     inkscape:pageshadow="2"
     inkscape:zoom="0.5"
     inkscape:cx="280.00786"
     inkscape:cy="616.91297"
     inkscape:document-units="px"
     inkscape:current-layer="layer1"
     showgrid="false"
     inkscape:pagecheckerboard="true"
     units="px"
     inkscape:window-width="1920"
     inkscape:window-height="1017"
     inkscape:window-x="1912"
     inkscape:window-y="-8"
     inkscape:window-maximized="1"
     showguides="false"
     inkscape:measure-start="0,0"
     inkscape:measure-end="0,0" />
  <metadata
     id="metadata1829">
    <rdf:RDF>
      <cc:Work
         rdf:about="">
        <dc:format>image/svg+xml</dc:format>
        <dc:type
           rdf:resource="http://purl.org/dc/dcmitype/StillImage" />
        <dc:title>angry monster</dc:title>
      </cc:Work>
    </rdf:RDF>
  </metadata>
  <g
     inkscape:label="Layer 1"
     inkscape:groupmode="layer"
     id="layer1"
     transform="translate(-52.214198,901.23588)">
    <path
       d="m 176.78467,-725.4742 -28.9594,74.7076 -11.81237,30.46802 c 0,0 -30.75505,-22.06744 -47.781638,-57.507 -16.968824,-35.39044 -25.65634,-100.5422 -9.210468,-102.39808 l 0.175067,-0.0522 c 16.678162,-1.45105 27.857559,27.8563 49.226379,41.98426 21.37374,14.13405 48.36236,12.80041 48.36236,12.80041"
       style="fill:#f9b147;fill-opacity:1;fill-rule:nonzero;stroke:none;stroke-width:0.61452323"
       id="path18"
       inkscape:connector-curvature="0" />
    <path
       d="m 134.22709,-621.65051 c -6.80092,-5.29102 -31.42487,-25.82832 -45.995828,-56.15507 -10.622027,-22.1535 -17.998773,-55.97078 -17.998773,-78.62212 0.0025,-13.53186 2.638157,-23.08144 8.788305,-23.77596 2.664565,12.04476 11.932797,49.45691 33.013406,85.24678 12.99164,22.12284 22.74227,33.4668 29.19477,39.28023 -3.13038,11.12291 -5.42501,22.51617 -7.00188,34.02614"
       style="fill:#e79b40;fill-opacity:1;fill-rule:nonzero;stroke:none;stroke-width:0.61452323"
       id="path20"
       inkscape:connector-curvature="0" />
    <path
       d="m 579.18183,-778.34778 c -0.81733,4.74422 -1.56707,8.86151 -2.3229,12.38879 -1.32737,6.20067 -2.54413,10.71738 -3.53349,13.96195 -1.67767,5.50005 -2.77765,7.23922 -2.77765,7.23922 l -86.46954,-23.05078 c 0,0 3.18936,-2.3168 7.9396,-6.13917 9.37765,-7.53396 24.84519,-20.96757 33.29487,-33.82338 7.65081,-11.58365 14.65638,-24.78367 22.18431,-33.24557 4.98377,-5.61676 10.19495,-9.15032 15.98375,-8.74479 14.5396,0.98943 20.27309,44.42387 15.70105,71.41373"
       style="fill:#f9b147;fill-opacity:1;fill-rule:nonzero;stroke:none;stroke-width:0.61452323"
       id="path22"
       inkscape:connector-curvature="0" />
    <path
       d="m 574.8863,-757.55841 c -18.15915,-9.41457 -41.86128,-19.20994 -70.31374,-27.12503 7.52793,-6.88264 15.48599,-15.09265 20.74016,-23.08771 7.65081,-11.58365 14.65638,-24.78367 22.18431,-33.24557 0.58373,6.66141 2.14468,19.0563 6.08378,37.93439 4.6335,22.18433 16.96698,32.95693 23.27812,37.12334 -0.69434,3.23865 -1.35803,6.02246 -1.97263,8.40058"
       style="fill:#e79b40;fill-opacity:1;fill-rule:nonzero;stroke:none;stroke-width:0.61452323"
       id="path24"
       inkscape:connector-curvature="0" />
    <path
       d="m 668.87148,-434.27619 c 0,0 61.19426,92.84223 70.84227,106.84093 9.65416,13.99888 14.86529,18.03639 39.18198,55.28253 12.9849,19.90446 15.95919,46.0648 11.97708,47.51498 -3.98211,1.4493 -6.15141,-14.47809 -10.13352,-22.44232 -3.98211,-7.95812 -9.2301,-14.30006 -9.2301,-14.30006 0,0 3.61953,7.23905 7.41729,29.32513 3.80387,22.07981 0.54697,30.58473 -3.43518,30.40043 -3.98211,-0.17768 -3.25698,-13.56861 -7.06087,-29.31885 -3.79776,-15.74414 -9.40839,-26.24012 -9.40839,-26.24012 0,0 3.43522,7.42334 3.07263,27.1435 -0.35623,19.73217 -0.71908,27.69639 -5.42622,27.51209 -4.70727,-0.17767 -3.61958,-19.18537 -5.06981,-26.96529 -1.44408,-7.77975 -3.43522,-24.43337 -3.43522,-24.43337 0,0 0.17837,13.93739 -0.90338,22.62051 -1.08768,8.6894 -1.62855,19.72626 -5.61058,20.45753 -3.98211,0.71943 -3.26312,-16.47542 -3.98211,-24.43964 -0.72517,-7.95795 -1.45035,-25.69924 -3.07876,-26.9653 -1.62856,-1.2664 -9.95528,7.24532 -11.40558,14.12186 -1.44408,6.87655 -4.7011,11.03686 -8.14239,9.40831 -3.44135,-1.62873 0.36268,-15.56594 3.61952,-24.43337 3.25699,-8.8676 14.66251,-30.22241 14.11561,-33.30114 -0.54088,-3.07873 -81.86679,-72.69808 -81.86679,-72.69808 0,0 3.10949,-57.06454 17.96249,-65.09026"
       style="fill:#b81d24;fill-opacity:1;fill-rule:nonzero;stroke:none;stroke-width:0.61452323"
       id="path26"
       inkscape:connector-curvature="0" />
    <g
       transform="matrix(0.61452326,0,0,-0.61452326,-243.48652,1446.9329)"
       id="g28">
      <g
         id="g30"
         clip-path="url(#clipPath34)">
        <path
           d="m 508.695,2575.45 c -6.386,0 -11.515,13.92 -5.394,49.48 6.187,35.93 12.074,47.71 12.074,47.71 0,0 -8.539,-10.31 -15.02,-23.27 -6.199,-12.4 -9.703,-36.67 -15.671,-36.67 -0.27,0 -0.543,0.05 -0.821,0.15 -6.48,2.36 -1.644,44.94 19.496,77.32 39.567,60.62 48.047,67.19 63.75,89.97 14.106,20.45 95.832,144.36 112.368,169.43 4.644,-16.39 9.164,-33.01 13.445,-50.17 l -113.66,-168.35 c -0.528,-0.62 -0.821,-1.05 -0.86,-1.27 -0.882,-5.01 17.672,-39.76 22.969,-54.19 5.305,-14.44 11.488,-37.11 5.895,-39.76 -0.821,-0.39 -1.629,-0.58 -2.43,-0.58 -4.652,0 -8.813,6.34 -10.828,15.89 -2.195,10.44 -14.125,23.18 -17.875,23.18 -0.27,0 -0.5,-0.07 -0.68,-0.21 -2.644,-2.06 -3.828,-30.92 -5.004,-43.88 -1.152,-12.69 -0.047,-39.8 -6.09,-39.8 -0.125,0 -0.257,0.02 -0.39,0.04 -6.481,1.18 -7.364,19.14 -9.129,33.28 -1.77,14.14 -1.469,36.82 -1.469,36.82 0,0 -3.242,-27.1 -5.598,-39.76 -2.359,-12.67 -0.589,-43.59 -8.246,-43.89 -0.086,0 -0.168,0 -0.25,0 -7.418,0 -8.004,13.02 -8.589,44.77 -0.586,32.1 5.011,44.17 5.011,44.17 0,0 -9.133,-17.08 -15.316,-42.7 -6.184,-25.62 -5.008,-47.41 -11.488,-47.71 -0.067,0 -0.133,0 -0.2,0 m 189,260.67 7.825,6.97 c 0.011,-0.08 0.023,-0.14 0.039,-0.22 -2.145,-1.84 -4.793,-4.12 -7.864,-6.75"
           style="fill:url(#linearGradient40);fill-opacity:1;fill-rule:nonzero;stroke:none"
           id="path42"
           inkscape:connector-curvature="0" />
      </g>
    </g>
    <path
       d="m 111.95494,-230.58026 0.52851,-0.7804 c 5.54483,-6.54453 53.03396,-47.58239 72.77983,-64.56785 l -73.30832,65.34842"
       style="fill:#d96b76;fill-opacity:1;fill-rule:nonzero;stroke:none;stroke-width:0.61452323"
       id="path44"
       inkscape:connector-curvature="0" />
    <g
       transform="matrix(0.61452326,0,0,-0.61452326,-243.48652,1446.9329)"
       id="g46">
      <g
         id="g48"
         clip-path="url(#clipPath52)">
        <path
           d="m 579.262,2731.05 113.66,168.35 c 4.504,-18.05 8.746,-36.7 12.598,-56.31 l -7.825,-6.97 c -32.132,-27.64 -109.41,-94.42 -118.433,-105.07"
           style="fill:url(#linearGradient58);fill-opacity:1;fill-rule:nonzero;stroke:none"
           id="path60"
           inkscape:connector-curvature="0" />
      </g>
    </g>
    <g
       transform="matrix(0.61452326,0,0,-0.61452326,-243.48652,1446.9329)"
       id="g62">
      <g
         id="g64"
         clip-path="url(#clipPath68)">
        <path
           d="m 1363.87,2220.21 h -0.02 c 0.01,0.02 0.02,0.03 0.02,0.03 l -38.44,2.66 c 1.22,3.29 64.45,175.45 -3.97,234.53 -26.58,22.95 -60.6,28.7 -100,28.7 -19.8,0 -40.96,-1.45 -63.21,-2.91 -22.25,-1.45 -45.6,-2.9 -69.78,-2.9 -28.57,0 -58.31,2.03 -88.763,8.49 -133.164,28.27 -201.305,395.82 -304.977,572.44 -100.367,171.05 -54,395.07 -50.98,409.02 -24.559,-53.99 -33.68,-114.47 -33.68,-174.1 0,23.35 1.399,46.82 4.575,69.99 v 0 c 2.566,18.73 6.3,37.27 11.394,55.37 4.695,16.68 10.547,32.98 17.711,48.74 v 0.19 l 0.184,0.47 c 10.398,22.72 23.531,44.29 39.875,64.18 42.769,52.02 107.523,92.41 202.711,111.3 20.828,4.15 43.07,7.26 66.914,9.23 9.14,0.76 18.468,1.42 28.086,1.8 11.984,0.53 23.79,0.78 35.37,0.78 76.61,0 144.2,-11.12 200.41,-26.76 v 0 c 46.3,-12.88 84.87,-28.82 114.42,-44.14 v 0 c 33.07,-17.14 54.83,-33.51 63.44,-43.92 2.26,-2.73 3.67,-5.09 4.05,-6.88 5.46,-23.56 3.2,-58.52 -15.74,-127.6 -18.85,-69.08 -3.87,-188.12 73.04,-298.47 77,-110.27 59.75,-155.13 47.12,-266.62 -12.53,-111.49 -40.81,-229.3 -43.92,-365.95 -3.2,-136.65 -95.84,-257.67 -95.84,-257.67 m -230.9,495.21 c 0,0 40.37,-68.9 105.24,-72.65 2.47,-0.14 4.93,-0.21 7.33,-0.21 114.09,0 145.63,157.41 146.87,163.84 6.08,21.64 6.8,37.43 6.8,37.43 0,0 -11.78,-94.25 -102.18,-128.41 -30.13,-11.39 -58.4,-15.18 -82.71,-15.18 -48.61,0 -81.35,15.18 -81.35,15.18 0,0 22.39,-14.22 55.83,-23.02 -37.91,5.36 -55.83,23.02 -55.83,23.02 m 37.7,5.11 c 0,0 22.23,-5.15 51.92,-5.15 38.8,0 90.35,8.79 121.64,49.34 53.9,69.83 31.86,147.83 31.86,147.83 0,0 5.06,-73.43 -49.92,-133.91 -51,-56.1 -141.2,-58.12 -153.98,-58.12 -0.99,0 -1.52,0.01 -1.52,0.01 m 203.24,232.23 c -0.04,0 -0.08,0 -0.12,0 -2.81,-0.23 -4.43,-8.57 -3.62,-18.62 0.8,-9.92 3.66,-17.81 6.43,-17.81 0.04,0 0.08,0 0.12,0.01 2.82,0.22 4.43,8.56 3.62,18.62 -0.8,9.92 -3.66,17.8 -6.43,17.8 m -357.02,705.46 c -11.58,0 -23.386,-0.25 -35.37,-0.78 -9.618,-0.38 -18.946,-1.04 -28.086,-1.8 -23.844,-1.97 -46.086,-5.08 -66.914,-9.23 l -82.653,-29.69 c 0,0 92.36,-70.77 273.683,-91.41 33.92,-3.85 67.13,-5.42 98.72,-5.42 97.45,0 179.46,14.9 218.89,23.51 -25.64,31 -167.93,114.82 -378.27,114.82 m 373.97,-857.07 c 0.53,1.71 1.03,3.39 1.49,5.04 -0.19,-0.76 -0.65,-2.5 -1.49,-5.04"
           style="fill:url(#linearGradient74);fill-opacity:1;fill-rule:nonzero;stroke:none"
           id="path76"
           inkscape:connector-curvature="0" />
      </g>
    </g>
    <path
       d="m 248.21131,115.35957 c -0.57833,16.40766 52.14783,44.76182 58.48296,40.95791 6.33449,-3.79781 -25.15736,-25.51495 -25.15736,-25.51495 0,0 47.41908,11.94633 54.47687,8.50493 7.05719,-3.43514 -30.76919,-21.35464 -30.76919,-21.35464 0,0 49.41136,0.18465 51.22114,-7.77992 1.80976,-7.96422 -93.87088,-2.53785 -93.87088,-2.53785 l -14.38354,7.72452"
       style="fill:#b81d24;fill-opacity:1;fill-rule:nonzero;stroke:none;stroke-width:0.61452323"
       id="path78"
       inkscape:connector-curvature="0" />
    <path
       d="m 571.01481,80.909267 c 0,0 -73.74278,5.008471 -74.83049,10.803435 -1.08768,5.788692 59.53504,1.929564 59.53504,1.929564 0,0 -46.501,14.478094 -41.4312,21.717304 5.06369,7.23905 58.47805,-12.57935 58.47805,-12.57935 0,0 -21.92617,30.19767 -12.51167,33.0921 9.40834,2.89443 34.38871,-53.328401 34.38871,-53.328401 l -23.62844,-1.633955"
       style="fill:#b81d24;fill-opacity:1;fill-rule:nonzero;stroke:none;stroke-width:0.61452323"
       id="path80"
       inkscape:connector-curvature="0" />
    <path
       d="m 464.14308,-517.3659 c 0,81.06173 -48.84229,146.77892 -109.09814,146.77892 -60.25706,0 -109.09998,-65.71719 -109.09998,-146.77892 0,-81.06173 48.84292,-146.77892 109.09998,-146.77892 60.25585,0 109.09814,65.71719 109.09814,146.77892"
       style="fill:#b81d24;fill-opacity:1;fill-rule:nonzero;stroke:none;stroke-width:0.61452323"
       id="path82"
       inkscape:connector-curvature="0" />
    <path
       d="m 604.89349,-548.20269 c 0,25.44753 -8.04409,48.38142 -20.88152,64.40828 -2.00948,2.46417 -4.0804,4.79944 -6.26813,6.84571 -3.43517,0.29439 -7.22061,0.65672 -11.2396,1.1375 -1.06921,0.12194 -2.13241,0.24039 -3.25699,0.36233 h -0.0557 c -5.68433,0.71942 -11.83572,1.62176 -18.40496,2.76535 -5.97317,1.02079 -11.29495,1.97886 -16.14967,2.87597 -3.07262,0.54 -5.91173,1.08175 -8.57877,1.56079 -1.76982,0.30136 -3.42904,0.60272 -4.96534,0.90408 -2.72234,-1.49983 -5.38321,-3.29997 -7.92734,-5.34014 -19.11169,-15.25257 -31.94294,-43.34857 -31.94294,-75.51883 0,-48.38752 29.04241,-87.64946 64.83223,-87.64946 35.79598,0 64.83834,39.26194 64.83834,87.64946"
       style="fill:#b81d24;fill-opacity:1;fill-rule:nonzero;stroke:none;stroke-width:0.61452323"
       id="path84"
       inkscape:connector-curvature="0" />
    <path
       d="m 456.80567,-517.3659 c 0,73.03619 -43.47751,132.23934 -97.10387,132.23934 -53.63189,0 -97.10695,-59.20315 -97.10695,-132.23934 0,-73.02992 43.47506,-132.23917 97.10695,-132.23917 53.62636,0 97.10387,59.20925 97.10387,132.23917"
       style="fill:#bfe9ea;fill-opacity:1;fill-rule:nonzero;stroke:none;stroke-width:0.61452323"
       id="path86"
       inkscape:connector-curvature="0" />
    <path
       d="m 456.80567,-517.3659 c 0,69.57022 -41.4127,125.96499 -92.49986,125.96499 -51.0847,0 -92.49556,-56.39477 -92.49556,-125.96499 0,-69.57022 41.41086,-125.96499 92.49556,-125.96499 51.08716,0 92.49986,56.39477 92.49986,125.96499"
       style="fill:#ffffff;fill-opacity:1;fill-rule:nonzero;stroke:none;stroke-width:0.61452323"
       id="path88"
       inkscape:connector-curvature="0" />
    <g
       transform="matrix(0.61452326,0,0,-0.61452326,-243.48652,1446.9329)"
       id="g90">
      <g
         id="g92"
         clip-path="url(#clipPath96)">
        <path
           d="m 1132.97,3196.46 c 0,-64.27 -38.26,-116.36 -85.45,-116.36 -47.19,0 -85.446,52.09 -85.446,116.36 0,64.26 38.256,116.36 85.446,116.36 47.19,0 85.45,-52.1 85.45,-116.36"
           style="fill:url(#linearGradient102);fill-opacity:1;fill-rule:nonzero;stroke:none"
           id="path104"
           inkscape:connector-curvature="0" />
      </g>
    </g>
    <path
       d="m 446.01465,-517.3659 c 0,28.25574 -16.81948,51.15914 -37.57194,51.15914 -20.74631,0 -37.56458,-22.9034 -37.56458,-51.15914 0,-28.25574 16.81827,-51.15897 37.56458,-51.15897 20.75246,0 37.57194,22.90323 37.57194,51.15897"
       style="fill:#4c0e13;fill-opacity:1;fill-rule:nonzero;stroke:none;stroke-width:0.61452323"
       id="path106"
       inkscape:connector-curvature="0" />
    <path
       d="m 380.35901,-517.3659 c 0,16.39546 -13.29276,29.68153 -29.68578,29.68153 -16.39057,0 -29.68146,-13.28607 -29.68146,-29.68153 0,-16.39546 13.29089,-29.68136 29.68146,-29.68136 16.39302,0 29.68578,13.2859 29.68578,29.68136"
       style="fill:#ffffff;fill-opacity:1;fill-rule:nonzero;stroke:none;stroke-width:0.61452323"
       id="path108"
       inkscape:connector-curvature="0" />
    <path
       d="m 408.44271,-503.24404 c 0,5.99146 -4.86088,10.85238 -10.85862,10.85238 -5.99774,0 -10.85864,-4.86092 -10.85864,-10.85238 0,-6.004 4.8609,-10.86493 10.85864,-10.86493 5.99774,0 10.85862,4.86093 10.85862,10.86493"
       style="fill:#ffffff;fill-opacity:1;fill-rule:nonzero;stroke:none;stroke-width:0.61452323"
       id="path110"
       inkscape:connector-curvature="0" />
    <path
       d="m 590.18181,-538.11834 c 0,6.08378 -0.57764,11.98936 -1.62229,17.60612 -2.43351,13.90046 -7.81674,26.23402 -15.17259,35.73448 -2.66087,3.47816 -5.61676,6.60009 -8.79996,9.26703 -1.04465,0.12193 -2.0894,0.23342 -3.18936,0.35013 h -0.0557 c -5.56146,0.68807 -11.5838,1.56079 -18.01168,2.66084 -5.85029,0.98246 -11.06142,1.91127 -15.8117,2.77772 -3.01114,0.52259 -5.79495,1.04517 -8.40055,1.50505 -3.41674,-1.56079 -6.71671,-3.53356 -9.78935,-5.96097 -16.27255,-12.68371 -27.21722,-36.60703 -27.21722,-63.9411 0,-40.65689 24.15077,-73.61365 54.03503,-73.61365 25.30608,0 46.50713,23.696 52.35738,55.71872 1.10005,5.67825 1.67768,11.70054 1.67768,17.89493"
       style="fill:#bfe9ea;fill-opacity:1;fill-rule:nonzero;stroke:none;stroke-width:0.61452323"
       id="path112"
       inkscape:connector-curvature="0" />
    <path
       d="m 590.18181,-538.11834 c 0,6.08378 -0.57764,11.98936 -1.62229,17.60612 -2.66705,14.07256 -8.45587,26.35074 -16.2726,35.56237 -3.29999,3.81628 -6.95026,7.12233 -10.88931,9.78944 h -0.0557 c -5.56146,0.68808 -11.5838,1.5608 -18.01168,2.66084 -5.85029,0.98246 -11.06142,1.91127 -15.8117,2.77772 -4.80558,-1.38834 -9.32847,-3.76088 -13.49493,-6.88891 -12.22287,-9.09492 -21.4284,-24.73455 -25.07867,-43.43444 -0.63913,-3.25084 -1.10005,-6.5508 -1.38886,-9.96747 v -0.0523 c -0.2336,-2.66101 -0.35031,-5.32795 -0.35031,-8.05027 0,-38.68431 23.05079,-70.07417 51.4909,-70.07417 23.86197,0 43.95687,22.12283 49.80713,52.17923 1.10004,5.67808 1.67767,11.70054 1.67767,17.89494"
       style="fill:#ffffff;fill-opacity:1;fill-rule:nonzero;stroke:none;stroke-width:0.61452323"
       id="path114"
       inkscape:connector-curvature="0" />
    <g
       transform="matrix(0.61452326,0,0,-0.61452326,-243.48652,1446.9329)"
       id="g116">
      <g
         id="g118"
         clip-path="url(#clipPath122)">
        <path
           d="m 1287.35,3217.45 c 0,-35.77 -21.29,-64.75 -47.55,-64.75 -26.26,0 -47.54,28.98 -47.54,64.75 0,35.76 21.28,64.74 47.54,64.74 26.26,0 47.55,-28.98 47.55,-64.74"
           style="fill:url(#linearGradient128);fill-opacity:1;fill-rule:nonzero;stroke:none"
           id="path130"
           inkscape:connector-curvature="0" />
      </g>
    </g>
    <path
       d="m 533.84231,-528.58096 c 0,15.72568 -9.35919,28.47087 -20.90608,28.47087 -11.54686,0 -20.90608,-12.74519 -20.90608,-28.47087 0,-15.71941 9.35922,-28.4646 20.90608,-28.4646 11.54689,0 20.90608,12.74519 20.90608,28.4646"
       style="fill:#4c0e13;fill-opacity:1;fill-rule:nonzero;stroke:none;stroke-width:0.61452323"
       id="path132"
       inkscape:connector-curvature="0" />
    <path
       d="m 515.41275,-526.91548 c 0,7.78585 -6.31114,14.09713 -14.09714,14.09713 -7.78603,0 -14.09717,-6.31128 -14.09717,-14.09713 0,-7.78601 6.31114,-14.09729 14.09717,-14.09729 7.786,0 14.09714,6.31128 14.09714,14.09729"
       style="fill:#ffffff;fill-opacity:1;fill-rule:nonzero;stroke:none;stroke-width:0.61452323"
       id="path134"
       inkscape:connector-curvature="0" />
    <path
       d="m 532.39203,-518.8591 c 0,3.33689 -2.70388,6.04075 -6.04074,6.04075 -3.34304,0 -6.04077,-2.70386 -6.04077,-6.04075 0,-3.33689 2.69773,-6.04703 6.04077,-6.04703 3.33686,0 6.04074,2.71014 6.04074,6.04703"
       style="fill:#ffffff;fill-opacity:1;fill-rule:nonzero;stroke:none;stroke-width:0.61452323"
       id="path136"
       inkscape:connector-curvature="0" />
    <path
       d="m 482.09332,-613.04717 c 0,0 9.99827,-33.66346 54.03503,-66.23942 44.03674,-32.57579 73.35563,-40.17751 73.35563,-40.17751 l -22.80495,24.97424 38.36467,-9.0458 c 0,0 -2.41506,25.27525 -18.33739,44.03664 -17.61835,20.75261 -72.864,29.62003 -102.80356,50.72905 -11.71281,8.26523 -19.66477,15.99603 -19.66477,15.99603 l 10.85862,-26.24639 -13.00328,5.97316"
       style="fill:#4c0e13;fill-opacity:1;fill-rule:nonzero;stroke:none;stroke-width:0.61452323"
       id="path138"
       inkscape:connector-curvature="0" />
    <path
       d="m 454.43978,-590.24218 c 0,0 -39.33564,-25.90828 -80.23831,-33.04298 -40.90267,-7.13453 -102.39122,-11.11664 -102.39122,-11.11664 l 22.03434,-10.13348 c 0,0 -8.32496,-2.65474 -18.81979,-14.47826 -8.16639,-9.19927 -20.99703,-39.82111 -20.99703,-39.82111 0,0 44.04166,5.97317 93.70251,13.75309 69.15598,10.84019 102.84412,51.76744 102.84412,51.76744 l -14.11556,-0.72466 c 0,0 16.0513,27.1496 17.98094,43.79712"
       style="fill:#4c0e13;fill-opacity:1;fill-rule:nonzero;stroke:none;stroke-width:0.61452323"
       id="path140"
       inkscape:connector-curvature="0" />
    <g
       transform="matrix(0.61452326,0,0,-0.61452326,-243.48652,1446.9329)"
       id="g142">
      <g
         id="g144"
         clip-path="url(#clipPath148)">
        <g
           id="g150"
           clip-path="url(#clipPath154)">
          <path
             d="m 800,2166 v 1 h -1 v 2 h -1 v 2 h -1 v 2 h -1 v 3 h -1 v 2 h -1 v 3 h -1 v 2 h -1 v 3 h -1 v 2 h -1 v 3 h -1 v 3 h -1 v 2 h -1 v 3 h -1 v 3 h -1 v 3 h -1 v 3 h -1 v 3 h -1 v 3 h -1 v 3 h -1 v 3 h -1 v 3 h -1 v 3 h -1 v 3 h -1 v 3 h -1 v 4 h -1 v 3 h -1 v 3 h -1 v 4 h -1 v 3 h -1 v 3 h -1 v 4 h -1 v 4 h -1 v 4 h -1 v 3 h -1 v 4 h -1 v 4 h -1 v 4 h -1 v 4 h -1 v 4 h -1 v 4 h -1 v 4 h -1 v 5 h -1 v 4 h -1 v 4 h -1 v 5 h -1 v 5 h -1 v 5 h -1 v 4 h -1 v 5 h -1 v 5 h -1 v 5 h -1 v 6 h -1 v 5 h -1 v 6 h -1 v 6 h -1 v 5 h -1 v 6 h -1 v 7 h -1 v 7 h -1 v 7 h -1 v 7 h -1 v 6 h -1 v 8 h -1 v 9 h -1 v 9 h -1 v 9 h -1 v 8 h -1 v 12 h -1 v 12 h -1 v 12 h -1 v 15 h -1 v 20 h -1 v 20 h -1 v 87 h -1 v 39 h -1 v 21 h -1 v 17 h -1 v 13 h -1 v 12 h -1 v 11 h -1 v 9 h -1 v 9 h -1 v 9 h -1 v 7 h -1 v 8 h -1 v 7 h -1 v 6 h -1 v 7 h -1 v 6 h -1 v 6 h -1 v 6 h -1 v 5 h -1 v 6 h -1 v 5 h -1 v 5 h -1 v 5 h -1 v 5 h -1 v 4 h -1 v 5 h -1 v 5 h -1 v 4 h -1 v 5 h -1 v 4 h -1 v 4 h -1 v 4 h -1 v 5 h -1 v 4 h -1 v 4 h -1 v 4 h -1 v 3 h -1 v 4 h -1 v 4 h -1 v 4 h -1 v 3 h -1 v 4 h -1 v 4 h -1 v 3 h -1 v 4 h -1 v 3 h -1 v 4 h -1 v 4 h -1 v 3 h -1 v 4 h -1 v 3 h -1 v 4 h -1 v 3 h -1 v 4 h -1 v 3 h -1 v 3 h -1 v 4 h -1 v 3 h -1 v 4 h -1 v 3 h -1 v 3 h -1 v 4 h -1 v 3 h -1 v 4 h -1 v 3 h -1 v 4 h -1 v 3 h -1 v 3 h -1 v 4 h -1 v 3 h -1 v 4 h -1 v 3 h -1 v 4 h -1 v 3 h -1 v 4 h -1 v 3 h -1 v 4 h -1 v 4 h -1 v 3 h -1 v 4 h -1 v 4 h -1 v 3 h -1 v 4 h -1 v 4 h -1 v 4 h -1 v 4 h -1 v 4 h -1 v 3 h -1 v 4 h -1 v 5 h -1 v 4 h -1 v 4 h -1 v 4 h -1 v 5 h -1 v 4 h -1 v 4 h -1 v 5 h -1 v 4 h -1 v 5 h -1 v 5 h -1 v 5 h -1 v 5 h -1 v 5 h -1 v 5 h -1 v 5 h -1 v 6 h -1 v 6 h -1 v 6 h -1 v 7 h -1 v 7 h -1 v 8 h -1 v 8 h -1 v 8 h -1 v 11 h -1 v 12 h -1 v 13 h -1 v 65 h 1 v 16 h 1 v 9 h 1 v 9 h 1 v 8 h 1 v 6 h 1 v 6 h 1 v 6 h 1 v 5 h 1 v 5 h 1 v 4 h 1 v 5 h 1 v 4 h 1 v 4 h 1 v 4 h 1 v 3 h 1 v 4 h 1 v 4 h 1 v 3 h 1 v 3 h 1 v 3 h 1 v 3 h 1 v 3 h 1 v 3 h 1 v 2 h 1 v 3 h 1 v 3 h 1 v 2 h 1 v 3 h 1 v 2 h 1 v 3 h 1 v 2 h 1 v 2 h 1 v 2 h 1 v -5 h -1 v -5 h -1 v -6 h -1 v -5 h -1 v -7 h -1 v -7 h -1 v -7 h -1 v -8 h -1 v -8 h -1 v -10 h -1 v -11 h -1 v -14 h -1 v -20 h -1 v -55 h 1 v -19 h 1 v -13 h 1 v -11 h 1 v -9 h 1 v -8 h 1 v -7 h 1 v -7 h 1 v -6 h 1 v -6 h 1 v -6 h 1 v -5 h 1 v -5 h 1 v -5 h 1 v -4 h 1 v -5 h 1 v -4 h 1 v -4 h 1 v -4 h 1 v -4 h 1 v -4 h 1 v -3 h 1 v -4 h 1 v -3 h 1 v -3 h 1 v -4 h 1 v -3 h 1 v -3 h 1 v -3 h 1 v -3 h 1 v -3 h 1 v -3 h 1 v -2 h 1 v -3 h 1 v -3 h 1 v -2 h 1 v -3 h 1 v -2 h 1 v -3 h 1 v -2 h 1 v -3 h 1 v -2 h 1 v -2 h 1 v -3 h 1 v -2 h 1 v -2 h 1 v -2 h 1 v -2 h 1 v -2 h 1 v -2 h 1 v -3 h 1 v -2 h 1 v -2 h 1 v -2 h 1 v -2 h 1 v -2 h 1 v -1 h 1 v -2 h 1 v -2 h 1 v -2 h 1 v -2 h 1 v -2 h 1 v -1 h 1 v -2 h 1 v -2 h 1 v -1 h 1 v -2 h 1 v -2 h 1 v -2 h 1 v -2 h 1 v -1 h 1 v -2 h 1 v -2 h 1 v -2 h 1 v -2 h 1 v -2 h 1 v -1 h 1 v -2 h 1 v -2 h 1 v -2 h 1 v -2 h 1 v -2 h 1 v -2 h 1 v -2 h 1 v -2 h 1 v -2 h 1 v -2 h 1 v -2 h 1 v -2 h 1 v -2 h 1 v -2 h 1 v -2 h 1 v -2 h 1 v -3 h 1 v -2 h 1 v -2 h 1 v -2 h 1 v -2 h 1 v -3 h 1 v -2 h 1 v -2 h 1 v -2 h 1 v -2 h 1 v -3 h 1 v -2 h 1 v -2 h 1 v -3 h 1 v -2 h 1 v -2 h 1 v -2 h 1 v -3 h 1 v -2 h 1 v -3 h 1 v -2 h 1 v -2 h 1 v -3 h 1 v -2 h 1 v -3 h 1 v -2 h 1 v -2 h 1 v -3 h 1 v -2 h 1 v -3 h 1 v -2 h 1 v -3 h 1 v -2 h 1 v -3 h 1 v -2 h 1 v -3 h 1 v -2 h 1 v -3 h 1 v -2 h 1 v -3 h 1 v -3 h 1 v -2 h 1 v -3 h 1 v -2 h 1 v -3 h 1 v -2 h 1 v -3 h 1 v -3 h 1 v -2 h 1 v -3 h 1 v -3 h 1 v -2 h 1 v -3 h 1 v -2 h 1 v -3 h 1 v -3 h 1 v -2 h 1 v -3 h 1 v -3 h 1 v -2 h 1 v -3 h 1 v -3 h 1 v -2 h 1 v -3 h 1 v -3 h 1 v -2 h 1 v -3 h 1 v -3 h 1 v -3 h 1 v -2 h 1 v -3 h 1 v -3 h 1 v -2 h 1 v -3 h 1 v -3 h 1 v -2 h 1 v -3 h 1 v -3 h 1 v -2 h 1 v -3 h 1 v -3 h 1 v -2 h 1 v -3 h 1 v -3 h 1 v -3 h 1 v -2 h 1 v -3 h 1 v -3 h 1 v -2 h 1 v -3 h 1 v -3 h 1 v -2 h 1 v -3 h 1 v -2 h 1 v -3 h 1 v -3 h 1 v -2 h 1 v -3 h 1 v -3 h 1 v -2 h 1 v -3 h 1 v -2 h 1 v -3 h 1 v -3 h 1 v -2 h 1 v -3 h 1 v -2 h 1 v -3 h 1 v -2 h 1 v -3 h 1 v -3 h 1 v -2 h 1 v -3 h 1 v -2 h 1 v -3 h 1 v -2 h 1 v -3 h 1 v -2 h 1 v -3 h 1 v -2 h 1 v -3 h 1 v -2 h 1 v -2 h 1 v -3 h 1 v -2 h 1 v -3 h 1 v -2 h 1 v -2 h 1 v -3 h 1 v -2 h 1 v -3 h 1 v -2 h 1 v -2 h 1 v -2 h 1 v -3 h 1 v -2 h 1 v -2 h 1 v -3 h 1 v -2 h 1 v -2 h 1 v -2 h 1 v -2 h 1 v -3 h 1 v -2 h 1 v -2 h 1 v -2 h 1 v -2 h 1 v -2 h 1 v -3 h 1 v -2 h 1 v -2 h 1 v -2 h 1 v -2 h 1 v -2 h 1 v -2 h 1 v -2 h 1 v -2 h 1 v -2 h 1 v -2 h 1 v -2 h 1 v -2 h 1 v -2 h 1 v -2 h 1 v -2 h 1 v -2 h 1 v -1 h 1 v -2 h 1 v -2 h 1 v -2 h 1 v -2 h 1 v -2 h 1 v -1 h 1 v -2 h 1 v -2 h 1 v -2 h 1 v -1 h 1 v -2 h 1 v -2 h 1 v -1 h 1 v -2 h 1 v -2 h 1 v -1 h 1 v -2 h 1 v -2 h 1 v -1 h 1 v -2 h 1 v -1 h 1 v -2 h 1 v -1 h 1 v -2 h 1 v -1 h 1 v -2 h 1 v -1 h 1 v -2 h 1 v -1 h 1 v -2 h 1 v -1 h 1 v -2 h 1 v -1 h 1 v -1 h 1 v -1 h 1 v -2 h 1 v -1 h 1 v -1 h 1 v -2 h 1 v -1 h 1 v -1 h 1 v -2 h 1 v -1 h 1 v -1 h 1 v -1 h 1 v -1 h 1 v -1 h 1 v -1 h 1 v -1 h 1 v -2 h 1 v -1 h 1 v -1 h 1 v -1 h 1 v -1 h 1 v -1 h 1 v -1 h 1 v -1 h 1 v -1 h 1 v -1 h 1 v -1 h 1 v -1 h 1 v -1 h 1 v -1 h 1 v -1 h 2 v -1 h 1 v -1 h 1 v -1 h 1 v -1 h 2 v -1 h 1 v -1 h 1 v -1 h 1 v -1 h 2 v -1 h 1 v -1 h 2 v -1 h 2 v -1 h 1 v -1 h 2 v -1 h 1 v -1 h 2 v -1 h 2 v -1 h 2 v -1 h 2 v -1 h 3 v -1 h 2 v -1 h 2 v -1 h 3 v -1 h 3 v -1 h 4 v -1 h 5 v -1 h 6 v -1 h 5 v -1 h 6 v -1 h 8 v -1 h 9 v -1 h 10 v -1 h 15 v -1 h 54 v 1 h 20 v 1 h 17 v 1 h 16 v 1 h 17 v 1 h 23 v 1 h 20 v -1 h 19 v -1 h 8 v -1 h 7 v -1 h 5 v -1 h 5 v -1 h 4 v -1 h 3 v -1 h 3 v -1 h 4 v -1 h 2 v -1 h 3 v -1 h 2 v -1 h 2 v -1 h 3 v -1 h 2 v -1 h 1 v -1 h 2 v -1 h 2 v -1 h 2 v -1 h 1 v -1 h 2 v -1 h 1 v -1 h 2 v -1 h 1 v -1 h 1 v -1 h 2 v -1 h 1 v -1 h 1 v -1 h 1 v -1 h 2 v -1 h 1 v -1 h 1 v -1 h 1 v -2 h 1 v -1 h 1 v -1 h 1 v -1 h 1 v -1 h 1 v -1 h 1 v -2 h 1 v -1 h 1 v -2 h 1 v -2 h 1 v -2 h 1 v -1 h 1 v -2 h 1 v -2 h 1 v -1 h 1 v -3 h 1 v -3 h 1 v -2 h 1 v -3 h 1 v -3 h 1 v -2 h 1 v -5 h 1 v -4 h 1 v -5 h 1 v -5 h 1 v -9 h 1 v -17 h 1 v -15 h -1 v -16 h -1 v -9 h -1 v -9 h -1 v -7 h -1 v -6 h -1 v -5 h -1 v -6 h -1 v -5 h -1 v -4 h -1 v -5 h -1 v -5 h -1 v -4 h -1 v -4 h -1 v -4 h -1 v -4 h -1 v -3 h -1 v -4 h -1 v -4 h -1 v -3 h -1 v -3 h -1 v -4 h -1 v -3 h -1 v -3 h -1 v -3 h -1 v -3 h -1 v -3 h -1 v -3 h -1 v -2 h -1 v 6 h -1 v 9 h -1 v 8 h -1 v 6 h -1 v 6 h -1 v 6 h -1 v 5 h -1 v 5 h -1 v 4 h -1 v 5 h -1 v 4 h -1 v 4 h -1 v 3 h -1 v 4 h -1 v 3 h -1 v 4 h -1 v 3 h -1 v 3 h -1 v 3 h -1 v 3 h -1 v 3 h -1 v 3 h -1 v 3 h -1 v 2 h -1 v 3 h -1 v 2 h -1 v 3 h -1 v 2 h -1 v 2 h -1 v 3 h -1 v 2 h -1 v 2 h -1 v 2 h -1 v 2 h -1 v 2 h -1 v 2 h -1 v 2 h -1 v 2 h -1 v 2 h -1 v 2 h -1 v 2 h -1 v 1 h -1 v 2 h -1 v 2 h -1 v 2 h -1 v 1 h -1 v 2 h -1 v 1 h -1 v 2 h -1 v 1 h -1 v 2 h -1 v 1 h -1 v 2 h -1 v 1 h -1 v 2 h -1 v 1 h -1 v 1 h -1 v 1 h -1 v 1 h -1 v 1 h -1 v 1 h -1 v 1 h -2 v 1 h -1 v 1 h -1 v 1 h -1 v 1 h -2 v 1 h -1 v 1 h -2 v 1 h -2 v 1 h -2 v 1 h -1 v 1 h -2 v 1 h -2 v 1 h -3 v 1 h -3 v 1 h -2 v 1 h -3 v 1 h -3 v 1 h -4 v 1 h -4 v 1 h -4 v 1 h -6 v 1 h -6 v 1 h -10 v 1 h -16 v 1 h -14 v -1 h -19 v -1 h -12 v -1 h -9 v -1 h -7 v -1 h -7 v -1 h -6 v -1 h -6 v -1 h -5 v -1 h -6 v -1 h -4 v -1 h -5 v -1 h -5 v -1 h -4 v -1 h -4 v -1 h -4 v -1 h -4 v -1 h -3 v -1 h -4 v -1 h -4 v -1 h -3 v -1 h -3 v -1 h -4 v -1 h -3 v -1 h -3 v -1 h -3 v -1 h -3 v -1 h -3 v -1 h -3 v -1 h -2 v -1 h -3 v -1 h -3 v -1 h -2 v -1 h -3 v -1 h -2 v -1 h -3 v -1 h -2 v -1 h -2 v -1 h -3 v -1 h -2 v -1 h -2 v -1 h -2 v -1 h -2 v -1 h -2 v -1 h -2 v -1 h -2 v -1 h -2 v -1 h -2 v -1 h -2 v -1 h -1 v -1 h -2 v -1 h -2 v -1 h -2 v -1 h -1 v -1 h -2 v -1 h -1 v -1 h -1 v -1 h -2 v -1 h -1 v -1 h -2 v -1 h -1 v -1 h -1 v -1 h -1 v -1 h -1 v -1 h -1 v -1 h -1 v -1 h -2 v -2 h -1 v -1 h -1 v -1 h -1 v -1 h -1 v -1 h -1 v -1 h -1 v -1 h -1 v -1 h -1 v -1 h -1 v -1 h -1 v -1 h -1 v -1 h -1 v -1 h -1 v -1 h -1 v -1 h -1 v -2 h -1 v -1 h -1 v -1 h -1 v -1 h -1 v -1 h -1 v -1 h -1 v -2 h -1 v -1 h -1 v -1 h -1 v -1 h -1 v -1 h -1 v -1 h -1 v -2 h -1 v -1 h -1 v -1 h -1 v -1 h -1 v -2 h -1 v -1 h -1 v -1 h -1 v -1 h -1 v -2 h -1 v -1 h -1 v -1 h -1 v -1 h -1 v -2 h -1 v -1 h -1 v -1 h -1 v -2 h -1 v -1 h -1 v -1 h -1 v -1 h -1 v -2 h -1 v -1 h -1 v -1 h -1 v -2 h -1 v -1 h -1 v -1 h -1 v -2 h -1 v -1 h -1 v -1 h -1 v -2 h -1 v -1 h -1 v -1 h -1 v -2 h -1 v -1 h -1 v -1 h -1 v -2 h -1 v -1 h -1 v -2 h -1 v -1 h -1 v -1 h -1 v -2 h -1 v -1 h -1 v -1 h -1 v -2 h -1 v -1 h -1 v -2 h -1 v -1 h -1 v -2 h -1 v -1 h -1 v -1 h -1 v -2 h -1 v -1 h -1 v -2 h -1 v -1 h -1 v -1 h -1 v -2 h -1 v -1 h -1 v -2 h -1 v -1 h -1 v -2 h -1 v -1 h -1 v -2 h -1 v -1 h -1 v -1 h -1 v -2 h -1 v -1 h -1 v -2 h -1 v -1 h -1 v -2 h -1 v -1 h -1 v -2 h -1 v -1 h -1 v -2 h -1 v -1 h -1 v -2 h -1 v -1 h -1 v -2 h -1 v -1 h -1 v -2 h -1 v -1 h -1 v -2 h -1 v -1 h -1 v -2 h -1 v -1 h -1 v -2 h -1 v -1 h -1 v -2 h -1 v -1 h -1 v -2 h -1 v -1 h -1 v -2 h -1 v -1 h -1 v -2 h -1 v -1 h -1 v -2 h -1 v -2 h -1 v -1 h -1 v -2 h -1 v -1 h -1 v -2 h -1 v -1 h -1 v -1 h -1 v -1 h -2 v -1 h -1 v -1 h -2 v -1 h -2 v -1 h -2 v -1 h -2 v -1 h -2 v -1 h -2 v -1 h -2 v -1 h -1 v -1 h -2 v -1 h -2 v -1"
             style="fill:url(#linearGradient160);fill-opacity:1;fill-rule:nonzero;stroke:none"
             id="path162"
             inkscape:connector-curvature="0" />
        </g>
      </g>
    </g>
    <path
       d="m 259.24631,109.43553 v 0 l 3.34854,-1.80048 c 0,0 0.007,0 0.0192,0 v 0 c -0.002,0 -0.002,0 -0.002,0 l -3.36573,1.80048"
       style="fill:#b81d24;fill-opacity:1;fill-rule:nonzero;stroke:none;stroke-width:0.61452323"
       id="path164"
       inkscape:connector-curvature="0" />
    <path
       d="m 571.00868,80.9401 c 0,-0.01394 0,-0.01742 0,-0.03484 v 0 c 0.005,0 0.005,0 0.005,0 h 0.005 c -0.005,0.01742 -0.0138,0.03484 -0.0138,0.03484"
       style="fill:#b81d24;fill-opacity:1;fill-rule:nonzero;stroke:none;stroke-width:0.61452323"
       id="path166"
       inkscape:connector-curvature="0" />
    <g
       transform="matrix(0.61452326,0,0,-0.61452326,-243.48652,1446.9329)"
       id="g168">
      <g
         id="g170"
         clip-path="url(#clipPath174)">
        <path
           d="m 1245.54,2642.56 c -2.4,0 -4.86,0.07 -7.33,0.21 -64.87,3.75 -105.24,72.65 -105.24,72.65 0,0 17.92,-17.66 55.83,-23.02 14.97,-3.94 32.15,-6.79 50.53,-6.79 21.57,0 44.78,3.93 67.99,14.62 50.41,23.24 73.25,67.62 83.54,100.92 0.84,2.54 1.3,4.28 1.49,5.04 0.02,0.07 0.04,0.14 0.06,0.21 -1.24,-6.43 -32.78,-163.84 -146.87,-163.84"
           style="fill:url(#linearGradient180);fill-opacity:1;fill-rule:nonzero;stroke:none"
           id="path182"
           inkscape:connector-curvature="0" />
      </g>
    </g>
    <path
       d="m 452.74982,-221.75569 c 0,0 45.27195,20.99213 100.81869,0 55.55288,-20.99213 62.79198,-78.91094 62.79198,-78.91094 0,0 -2.8944,63.54794 -56.46854,88.24556 -53.56801,24.69152 -107.14213,-9.33462 -107.14213,-9.33462"
       style="fill:#4e1613;fill-opacity:1;fill-rule:nonzero;stroke:none;stroke-width:0.61452323"
       id="path184"
       inkscape:connector-curvature="0" />
    <g
       transform="matrix(0.61452326,0,0,-0.61452326,-243.48652,1446.9329)"
       id="g186">
      <g
         id="g188"
         clip-path="url(#clipPath192)">
        <path
           d="m 1222.59,2715.38 c -29.69,0 -51.92,5.15 -51.92,5.15 0,0 0.53,-0.01 1.52,-0.01 12.78,0 102.98,2.02 153.98,58.12 54.98,60.48 49.92,133.91 49.92,133.91 0,0 22.04,-78 -31.86,-147.83 -31.29,-40.55 -82.84,-49.34 -121.64,-49.34"
           style="fill:url(#linearGradient2644);fill-opacity:1;fill-rule:nonzero;stroke:none"
           id="path200"
           inkscape:connector-curvature="0" />
      </g>
    </g>
    <g
       transform="matrix(0.61452326,0,0,-0.61452326,-243.48652,1446.9329)"
       id="g202">
      <g
         id="g204"
         clip-path="url(#clipPath208)">
        <path
           d="m 1376.6,2916.33 c -2.77,0 -5.63,7.89 -6.43,17.81 -0.81,10.05 0.81,18.39 3.62,18.62 0.04,0 0.08,0 0.12,0 2.77,0 5.63,-7.88 6.43,-17.8 0.81,-10.06 -0.8,-18.4 -3.62,-18.62 -0.04,-0.01 -0.08,-0.01 -0.12,-0.01"
           style="fill:url(#linearGradient2646);fill-opacity:1;fill-rule:nonzero;stroke:none"
           id="path216"
           inkscape:connector-curvature="0" />
      </g>
    </g>
    <path
       d="m 464.14308,-427.16622 3.56427,-47.00476 26.49209,35.29812 z"
       style="fill:#ffffff;fill-opacity:1;fill-rule:nonzero;stroke:none;stroke-width:0.61452323"
       id="path218"
       inkscape:connector-curvature="0" />
    <path
       d="m 613.70575,-458.05214 11.58374,-32.42215 10.55141,36.81606 z"
       style="fill:#ffffff;fill-opacity:1;fill-rule:nonzero;stroke:none;stroke-width:0.61452323"
       id="path220"
       inkscape:connector-curvature="0" />
    <path
       d="m 342.71085,-351.34011 c 0,0 84.43795,-72.87628 177.59967,-95.07908 93.15557,-22.19652 118.73201,-5.78886 118.73201,-5.78886 l -37.16018,69.49654 18.60774,-51.56468 c 0,0 -21.50216,-11.17813 -97.27904,2.82075 -74.6707,13.78984 -180.5002,80.11533 -180.5002,80.11533"
       style="fill:#4c0e13;fill-opacity:1;fill-rule:nonzero;stroke:none;stroke-width:0.61452323"
       id="path222"
       inkscape:connector-curvature="0" />
    <path
       d="m 497.09384,-633.13592 c 0,0 13.54406,-17.06524 28.9563,-31.12561 18.63849,-17.01612 43.4345,-28.59995 43.4345,-28.59995 l -8.38823,12.3705 35.95577,-8.21019 c 0,0 -27.3893,10.50225 -53.32833,27.63526 -24.50104,16.18642 -39.81497,37.04338 -39.81497,37.04338 l 2.16927,-11.10445 -8.98431,1.99106"
       style="fill:#86181c;fill-opacity:1;fill-rule:nonzero;stroke:none;stroke-width:0.61452323"
       id="path224"
       inkscape:connector-curvature="0" />
    <path
       d="m 431.03258,-644.53528 c 0,0 -19.97201,-20.10112 -60.15445,-31.3714 -40.17937,-11.27045 -88.73591,-14.71778 -88.73591,-14.71778 l 33.29917,13.75291 -40.54133,-7.23904 c 0,0 20.99702,13.2676 61.77617,21.95683 40.78223,8.68939 91.46195,32.25648 91.46195,32.25648 l -9.89382,-18.25761 12.78822,3.61961"
       style="fill:#86181c;fill-opacity:1;fill-rule:nonzero;stroke:none;stroke-width:0.61452323"
       id="path226"
       inkscape:connector-curvature="0" />
    <path
       d="m 600.89907,-477.71063 c 0,0 -9.50051,-0.23342 -25.3122,1.10092 -3.36144,0.28916 -7.06701,0.63233 -10.99995,1.09917 -1.04465,0.12194 -2.0894,0.23342 -3.18936,0.35013 h -0.0557 c -5.56146,0.68808 -11.5838,1.5608 -18.01169,2.66084 -5.85028,0.98246 -11.06141,1.9111 -15.81169,2.77755 -3.01115,0.52259 -5.79495,1.04517 -8.40055,1.50505 -1.73899,0.28916 -3.3553,0.58355 -4.86085,0.87272 -13.72846,2.54412 -19.92899,3.87777 -19.92899,3.87777 0,0 4.2279,-4.22791 12.16756,-9.03361 0.86645,-0.52259 1.79439,-1.10092 2.83293,-1.67751 1.45035,-0.81175 3.01733,-1.62176 4.69497,-2.43351 7.06088,-3.47816 15.92844,-6.71663 26.40604,-8.51712 10.83406,-1.84978 22.06753,-1.27162 31.85689,0.17768 l 1.10004,0.1742 c 2.95584,0.46162 5.73351,0.98246 8.33907,1.56776 11.41169,2.42724 19.17312,5.49988 19.17312,5.49988"
       style="fill:#b81d24;fill-opacity:1;fill-rule:nonzero;stroke:none;stroke-width:0.61452323"
       id="path228"
       inkscape:connector-curvature="0" />
    <path
       d="m 217.80656,-419.1527 c 3.18569,22.23954 -1.45453,41.30211 -10.36025,42.58019 -8.90568,1.27162 -18.70485,-15.72551 -21.88502,-37.97133 -3.18569,-22.23954 1.45697,-41.30821 10.36024,-42.58036 8.90568,-1.27163 18.70671,15.72568 21.88503,37.9715"
       style="fill:#f14857;fill-opacity:1;fill-rule:nonzero;stroke:none;stroke-width:0.61452323"
       id="path230"
       inkscape:connector-curvature="0" />
    <path
       d="m 221.4052,-419.66902 c 3.18323,22.23972 -1.45454,41.30839 -10.36086,42.58036 -8.90568,1.27163 -18.70425,-15.72567 -21.88746,-37.97132 -3.18263,-22.23972 1.45941,-41.30211 10.36331,-42.58036 8.90568,-1.27163 18.70425,15.72568 21.88501,37.97132"
       style="fill:#86171c;fill-opacity:1;fill-rule:nonzero;stroke:none;stroke-width:0.61452323"
       id="path232"
       inkscape:connector-curvature="0" />
    <path
       d="m 243.42235,-231.8829 c 2.1078,14.74235 -0.96731,27.38302 -6.87284,28.22491 -5.90249,0.84833 -12.398,-10.42229 -14.50827,-25.16464 -2.11028,-14.74861 0.9673,-27.38319 6.87037,-28.23118 5.90248,-0.84136 12.40046,10.42839 14.51074,25.17091"
       style="fill:#f14857;fill-opacity:1;fill-rule:nonzero;stroke:none;stroke-width:0.61452323"
       id="path234"
       inkscape:connector-curvature="0" />
    <path
       d="m 246.25714,-232.03654 c 2.11027,14.74844 -0.96731,27.38302 -6.86975,28.22491 -5.90558,0.84833 -12.40109,-10.4223 -14.51137,-25.16464 -2.10719,-14.74861 0.96731,-27.38319 6.87284,-28.23118 5.90249,-0.84136 12.39861,10.4223 14.50828,25.17091"
       style="fill:#86171c;fill-opacity:1;fill-rule:nonzero;stroke:none;stroke-width:0.61452323"
       id="path236"
       inkscape:connector-curvature="0" />
    <path
       d="m 238.64749,-137.26475 c 2.10782,14.74235 -0.96731,27.38302 -6.86729,28.22491 -5.90311,0.84833 -12.39862,-10.42229 -14.50889,-25.17074 -2.10967,-14.74251 0.96539,-27.38319 6.8679,-28.22508 5.90495,-0.84833 12.39863,10.4223 14.50828,25.17091"
       style="fill:#f14857;fill-opacity:1;fill-rule:nonzero;stroke:none;stroke-width:0.61452323"
       id="path238"
       inkscape:connector-curvature="0" />
    <path
       d="m 241.43005,-137.26475 c 2.10721,14.74235 -0.9673,27.38302 -6.87037,28.22491 -5.90002,0.84833 -12.39862,-10.42229 -14.50581,-25.17074 -2.11027,-14.74251 0.96487,-27.38319 6.8673,-28.22508 5.90556,-0.84833 12.39861,10.4223 14.50888,25.17091"
       style="fill:#86171c;fill-opacity:1;fill-rule:nonzero;stroke:none;stroke-width:0.61452323"
       id="path240"
       inkscape:connector-curvature="0" />
    <path
       d="m 268.13786,-178.01379 c 1.42317,9.96137 -0.65324,18.50323 -4.64273,19.07476 -3.98703,0.56614 -8.3778,-7.04255 -9.80348,-17.01002 -1.42388,-9.96137 0.65009,-18.50323 4.64271,-19.07476 3.98702,-0.57136 8.37718,7.04237 9.8035,17.01002"
       style="fill:#f14857;fill-opacity:1;fill-rule:nonzero;stroke:none;stroke-width:0.61452323"
       id="path242"
       inkscape:connector-curvature="0" />
    <path
       d="m 270.01706,-178.01379 c 1.42631,9.96137 -0.65254,18.50323 -4.63965,19.07476 -3.99256,0.56614 -8.38025,-7.04255 -9.80656,-17.01002 -1.42562,-9.96137 0.65323,-18.50323 4.64026,-19.07476 3.99195,-0.57136 8.38272,7.04237 9.80595,17.01002"
       style="fill:#86171c;fill-opacity:1;fill-rule:nonzero;stroke:none;stroke-width:0.61452323"
       id="path244"
       inkscape:connector-curvature="0" />
    <path
       d="m 165.86521,-613.38511 c -1.24812,9.98594 -5.50429,17.67981 -9.50361,17.17586 -3.99685,-0.4982 -6.22695,-8.9965 -4.97825,-18.98871 1.24811,-9.98593 5.50429,-17.6798 9.503,-17.17585 3.99932,0.49819 6.22695,9.00277 4.97886,18.9887"
       style="fill:#f14857;fill-opacity:1;fill-rule:nonzero;stroke:none;stroke-width:0.61452323"
       id="path246"
       inkscape:connector-curvature="0" />
    <path
       d="m 167.67743,-612.88743 c -1.24811,9.98611 -5.50428,17.67371 -9.50113,17.17603 -3.99932,-0.50342 -6.22942,-9.00277 -4.98072,-18.99498 1.25299,-9.98593 5.50676,-17.6798 9.5036,-17.17585 3.99872,0.50342 6.22882,9.00277 4.97825,18.9948"
       style="fill:#86171c;fill-opacity:1;fill-rule:nonzero;stroke:none;stroke-width:0.61452323"
       id="path248"
       inkscape:connector-curvature="0" />
    <path
       d="m 274.52275,-323.83411 c 4.73612,33.12276 -2.17234,61.51385 -15.43252,63.41276 -13.26264,1.89263 -27.85511,-23.41955 -32.59616,-56.54859 -4.73858,-33.12276 2.17235,-61.51367 15.43251,-63.40648 13.26264,-1.89873 27.85511,23.41345 32.59617,56.54231"
       style="fill:#f14857;fill-opacity:1;fill-rule:nonzero;stroke:none;stroke-width:0.61452323"
       id="path250"
       inkscape:connector-curvature="0" />
    <path
       d="m 280.01782,-324.62061 c 4.73611,33.12277 -2.17051,61.51368 -15.43315,63.41259 -13.26264,1.89281 -27.85511,-23.41955 -32.5937,-56.54841 -4.73857,-33.12276 2.1705,-61.51385 15.43314,-63.40649 13.26264,-1.8989 27.8551,23.41328 32.59371,56.54231"
       style="fill:#86171c;fill-opacity:1;fill-rule:nonzero;stroke:none;stroke-width:0.61452323"
       id="path252"
       inkscape:connector-curvature="0" />
    <path
       d="m 185.81816,-529.17706 c 3.33379,23.30894 -1.527,43.28708 -10.85739,44.62054 -9.33338,1.33957 -19.60267,-16.47524 -22.93707,-39.79027 -3.33379,-23.30893 1.52699,-43.28707 10.85738,-44.62054 9.33584,-1.33259 19.60513,16.48151 22.93708,39.79027"
       style="fill:#f14857;fill-opacity:1;fill-rule:nonzero;stroke:none;stroke-width:0.61452323"
       id="path254"
       inkscape:connector-curvature="0" />
    <path
       d="m 189.68044,-529.3307 c 3.33687,23.30894 -1.527,43.28708 -10.85986,44.62054 -9.3309,1.3326 -19.6002,-16.48151 -22.93154,-39.79027 -3.33685,-23.30893 1.52648,-43.28707 10.8574,-44.62054 9.33276,-1.33956 19.5996,16.47524 22.934,39.79027"
       style="fill:#86171c;fill-opacity:1;fill-rule:nonzero;stroke:none;stroke-width:0.61452323"
       id="path256"
       inkscape:connector-curvature="0" />
    <g
       transform="matrix(0.61452326,0,0,-0.61452326,-243.48652,1446.9329)"
       id="g258">
      <g
         id="g260"
         clip-path="url(#clipPath264)">
        <g
           id="g266"
           clip-path="url(#clipPath270)">
          <path
             d="m 1160,3519 v 1 h -28 v 1 h -16 v 1 h -13 v 1 h -13 v 1 h -10 v 1 h -9 v 1 h -8 v 1 h -7 v 1 h -7 v 1 h -6 v 1 h -6 v 1 h -6 v 1 h -5 v 1 h -6 v 1 h -6 v 1 h -5 v 1 h -4 v 1 h -5 v 1 h -4 v 1 h -5 v 1 h -5 v 1 h -4 v 1 h -4 v 1 h -4 v 1 h -3 v 1 h -4 v 1 h -4 v 1 h -4 v 1 h -4 v 1 h -3 v 1 h -3 v 1 h -4 v 1 h -3 v 1 h -3 v 1 h -4 v 1 h -3 v 1 h -3 v 1 h -3 v 1 h -3 v 1 h -3 v 1 h -2 v 1 h -3 v 1 h -3 v 1 h -3 v 1 h -3 v 1 h -2 v 1 h -3 v 1 h -3 v 1 h -2 v 1 h -3 v 1 h -2 v 1 h -3 v 1 h -2 v 1 h -3 v 1 h -2 v 1 h -2 v 1 h -3 v 1 h -2 v 1 h -2 v 1 h -2 v 1 h -3 v 1 h -2 v 1 h -2 v 1 h -2 v 1 h -2 v 1 h -2 v 1 h -2 v 1 h -2 v 1 h -2 v 1 h -2 v 1 h -2 v 1 h -2 v 1 h -2 v 1 h -2 v 1 h -2 v 1 h -2 v 1 h -2 v 1 h -2 v 1 h -1 v 1 h -2 v 1 h -2 v 1 h -2 v 1 h -1 v 1 h -2 v 1 h -2 v 1 h -1 v 1 h -2 v 1 h -2 v 1 h -1 v 1 h -2 v 1 h -1 v 1 h -2 v 1 h -1 v 1 h -2 v 1 h -1 v 1 h -2 v 1 h -1 v 1 h 1 v 1 h 3 v 1 h 3 v 1 h 2 v 1 h 3 v 1 h 3 v 1 h 3 v 1 h 3 v 1 h 2 v 1 h 3 v 1 h 3 v 1 h 3 v 1 h 3 v 1 h 2 v 1 h 3 v 1 h 3 v 1 h 3 v 1 h 2 v 1 h 3 v 1 h 3 v 1 h 3 v 1 h 3 v 1 h 2 v 1 h 3 v 1 h 3 v 1 h 3 v 1 h 3 v 1 h 2 v 1 h 3 v 1 h 3 v 1 h 4 v 1 h 6 v 1 h 6 v 1 h 6 v 1 h 6 v 1 h 7 v 1 h 8 v 1 h 9 v 1 h 9 v 1 h 12 v 1 h 15 v 1 h 27 v 1 h 34 v -1 h 26 v -1 h 13 v -1 h 14 v -1 h 11 v -1 h 8 v -1 h 8 v -1 h 8 v -1 h 8 v -1 h 6 v -1 h 6 v -1 h 6 v -1 h 6 v -1 h 5 v -1 h 6 v -1 h 4 v -1 h 5 v -1 h 4 v -1 h 5 v -1 h 5 v -1 h 4 v -1 h 4 v -1 h 4 v -1 h 4 v -1 h 4 v -1 h 4 v -1 h 3 v -1 h 4 v -1 h 4 v -1 h 3 v -1 h 3 v -1 h 4 v -1 h 3 v -1 h 3 v -1 h 3 v -1 h 4 v -1 h 3 v -1 h 3 v -1 h 3 v -1 h 2 v -1 h 3 v -1 h 3 v -1 h 3 v -1 h 3 v -1 h 2 v -1 h 3 v -1 h 3 v -1 h 2 v -1 h 3 v -1 h 2 v -1 h 3 v -1 h 2 v -1 h 3 v -1 h 2 v -1 h 3 v -1 h 2 v -1 h 2 v -1 h 2 v -1 h 3 v -1 h 2 v -1 h 2 v -1 h 2 v -1 h 2 v -1 h 3 v -1 h 2 v -1 h 2 v -1 h 2 v -1 h 2 v -1 h 2 v -1 h 2 v -1 h 2 v -1 h 2 v -1 h 2 v -1 h 2 v -1 h 1 v -1 h 2 v -1 h 2 v -1 h 2 v -1 h 2 v -1 h 1 v -1 h 2 v -1 h 2 v -1 h 2 v -1 h 1 v -1 h 2 v -1 h 2 v -1 h 1 v -1 h 2 v -1 h 1 v -1 h 2 v -1 h 1 v -1 h 2 v -1 h 1 v -1 h 2 v -1 h 1 v -1 h 2 v -1 h 1 v -1 h 1 v -1 h 2 v -1 h 1 v -1 h 2 v -1 h 1 v -1 h 1 v -1 h 1 v -1 h 2 v -1 h 1 v -1 h 1 v -1 h 1 v -1 h 1 v -1 h 1 v -1 h 1 v -1 h 1 v -1 h 1 v -1 h 1 v -1 h 1 v -1 h 1 v -1 h -2 v -1 h -5 v -1 h -5 v -1 h -5 v -1 h -5 v -1 h -5 v -1 h -6 v -1 h -5 v -1 h -6 v -1 h -6 v -1 h -6 v -1 h -6 v -1 h -8 v -1 h -7 v -1 h -7 v -1 h -8 v -1 h -8 v -1 h -9 v -1 h -9 v -1 h -12 v -1 h -12 v -1 h -14 v -1 h -19 v -1 h -31 v -1"
             style="fill:url(#linearGradient276);fill-opacity:1;fill-rule:nonzero;stroke:none"
             id="path278"
             inkscape:connector-curvature="0" />
        </g>
      </g>
    </g>
    <path
       d="m 217.75862,-761.74938 c 0,0 31.88822,-62.00543 94.54809,-98.76627 81.44274,-47.77923 133.70794,-40.29422 133.70794,-40.29422 l -60.77634,31.08868 c 0,0 13.87593,-3.87759 41.44959,-6.11443 40.17753,-3.25711 53.93669,3.61943 53.93669,3.61943 l -91.58237,30.40671 c 0,0 11.86644,-2.3229 41.99036,-0.72466 28.59375,1.51725 38.61052,5.91168 38.61052,5.91168 l -67.01992,35.94961 c 0,0 -130.2777,7.38049 -184.86456,38.92399"
       style="display:inline;fill:#4c0e13;fill-opacity:1;fill-rule:nonzero;stroke:none;stroke-width:0.61452323"
       id="path280"
       inkscape:connector-curvature="0" />
    <text
       xml:space="preserve"
       style="font-style:normal;font-variant:normal;font-weight:normal;font-stretch:normal;font-size:21.33333397px;line-height:150;font-family:sans-serif;-inkscape-font-specification:sans-serif;letter-spacing:0px;word-spacing:0px;fill:#000000;fill-opacity:1;stroke:none"
       x="346.2142"
       y="149.99796"
       id="text2658"
       inkscape:label="attribution"><tspan
         sodipodi:role="line"
         id="tspan2656"
         x="346.2142"
         y="149.99796">image by vectorpouch (www.freepik.com)</tspan></text>
  </g>
</svg>
