<?xml version="1.0" encoding="UTF-8" standalone="no"?>
<!-- Created with Inkscape (http://www.inkscape.org/) -->

<svg
   xmlns:dc="http://purl.org/dc/elements/1.1/"
   xmlns:cc="http://creativecommons.org/ns#"
   xmlns:rdf="http://www.w3.org/1999/02/22-rdf-syntax-ns#"
   xmlns:svg="http://www.w3.org/2000/svg"
   xmlns="http://www.w3.org/2000/svg"
   xmlns:sodipodi="http://sodipodi.sourceforge.net/DTD/sodipodi-0.dtd"
   xmlns:inkscape="http://www.inkscape.org/namespaces/inkscape"
   width="1086.813"
   height="1139.1952"
   viewBox="0 0 1086.813 1139.1952"
   version="1.1"
   id="svg3107"
   inkscape:version="0.92.3 (2405546, 2018-03-11)"
   sodipodi:docname="monster_confused.svg">
  <title
     id="title3760">confused monster</title>
  <defs
     id="defs3101">
    <clipPath
       clipPathUnits="userSpaceOnUse"
       id="clipPath420">
      <path
         d="M 57.7363,175.635 H 82.5112 V 150.859 H 57.7363 Z"
         id="path418"
         inkscape:connector-curvature="0" />
    </clipPath>
    <clipPath
       clipPathUnits="userSpaceOnUse"
       id="clipPath404">
      <path
         d="m 126.407,182.842 h 24.775 v -24.777 h -24.775 z"
         id="path402"
         inkscape:connector-curvature="0" />
    </clipPath>
  </defs>
  <sodipodi:namedview
     id="base"
     pagecolor="#ffffff"
     bordercolor="#666666"
     borderopacity="1.0"
     inkscape:pageopacity="0.0"
     inkscape:pageshadow="2"
     inkscape:zoom="0.35"
     inkscape:cx="935.20091"
     inkscape:cy="224.76417"
     inkscape:document-units="px"
     inkscape:current-layer="layer1"
     showgrid="false"
     inkscape:pagecheckerboard="true"
     units="px"
     inkscape:window-width="1920"
     inkscape:window-height="1017"
     inkscape:window-x="1912"
     inkscape:window-y="-8"
     inkscape:window-maximized="1" />
  <metadata
     id="metadata3104">
    <rdf:RDF>
      <cc:Work
         rdf:about="">
        <dc:format>image/svg+xml</dc:format>
        <dc:type
           rdf:resource="http://purl.org/dc/dcmitype/StillImage" />
        <dc:title>confused monster</dc:title>
      </cc:Work>
    </rdf:RDF>
  </metadata>
  <g
     inkscape:label="Layer 1"
     inkscape:groupmode="layer"
     id="layer1"
     transform="translate(1509.4867,809.0543)">
    <g
       id="g382"
       transform="matrix(6.5275104,0,0,-6.5275104,-636.56626,-378.30466)">
      <path
         d="m 0,0 c 0.06,-9.74 -0.58,-18.64 -1.21,-24.899 l -0.18,0.019 c 0,0 -15.46,3.651 -13.68,15.49 C -13.36,2.021 -0.92,0.15 0,0"
         style="fill:#f2d67e;fill-opacity:1;fill-rule:nonzero;stroke:none"
         id="path384"
         inkscape:connector-curvature="0" />
    </g>
    <g
       id="g386"
       transform="matrix(6.5275104,0,0,-6.5275104,-1194.4073,-315.12038)">
      <path
         d="m 0,0 c 4.66,-7.51 -3.39,-17.71 -11.25,-16.05 l -0.35,-0.1 c -1.41,4.9 -2.97,11.04 -4.19,17.69 C -14.23,2.93 -5.96,9.58 0,0"
         style="fill:#f2d67e;fill-opacity:1;fill-rule:nonzero;stroke:none"
         id="path388"
         inkscape:connector-curvature="0" />
    </g>
    <g
       id="g390"
       transform="matrix(6.5275104,0,0,-6.5275104,-973.71159,-805.33362)">
      <path
         d="M 0,0 C 0,0 -0.39,-11.649 -8.6,-14.319 -19.28,-17.8 -25.73,-6.04 -25.73,-6.04 l -0.15,0.28 c 7.68,4.2 16.53,6.33 25.89,6.33 z"
         style="fill:#f2d67e;fill-opacity:1;fill-rule:nonzero;stroke:none"
         id="path392"
         inkscape:connector-curvature="0" />
    </g>
    <g
       id="g394"
       transform="matrix(6.5275104,0,0,-6.5275104,-1034.027,-32.932825)">
      <path
         d="m 0,0 -0.12,0.271 c 0,0 -17.51,2.03 -24.53,-9.021 -7.45,-11.729 -18.85,-21.52 -31.99,-20.76 -13.15,0.74 -17.97,8.58 -14.34,16.08 3.63,7.51 14.82,5.991 14.82,5.991 0,0 -8.41,-7.391 -1.09,-6.851 4.96,0.37 6.83,3.74 11.23,16.181 3.32,9.38 11.31,12.929 13.53,13.75 l -0.05,0.13 c 0,0 -1.66,4.439 -3.63,11.309 l 0.35,0.101 c 7.86,-1.66 15.91,8.54 11.25,16.049 -5.96,9.581 -14.23,2.93 -15.79,1.541 -2.4,13.089 -3.5,28.149 0.48,39.599 4.54,13.07 12.82,22.53 23.24,28.2 l 0.15,-0.28 c 0,0 6.45,-11.76 17.13,-8.279 8.21,2.67 8.6,14.319 8.6,14.319 l 0.01,0.57 c 9.38,0 19.29,-2.15 29.06,-6.509 C 56.54,104.261 60.75,76.19 60.89,52.91 59.97,53.061 47.53,54.931 45.82,43.521 44.04,31.681 59.5,28.03 59.5,28.03 l 0.18,-0.019 c -0.57,-5.67 -1.13,-9.17 -1.13,-9.17 0,0 16.93,-1.49 21.46,-22.7 4.53,-21.21 -36.62,-15.221 -36.18,-22.84 0.44,-7.62 15.49,-8.891 15.49,-8.891 0,0 -25.09,-7.95 -31.7,5.351 C 21,-16.93 56.44,-13.12 53.13,-3.5 51.86,0.19 42.75,-2.12 42.75,-2.12 l -0.14,0.011 C 42.38,-4.58 40.94,-7.29 37.25,-9.979 25.44,-18.56 -4.57,-16.84 -3.15,-25.63 c 1.42,-8.779 15.86,-4.59 18.68,-14.49 2.83,-9.909 -26.89,-14.55 -26.89,-14.55 0,0 10.5,5.3 8.34,12.87 -1.41,4.95 -21.01,1.611 -21.07,16.79 C -24.14,-10.979 -9.01,-4.1 0,0"
         style="fill:#f47d9a;fill-opacity:1;fill-rule:nonzero;stroke:none"
         id="path396"
         inkscape:connector-curvature="0" />
    </g>
    <g
       transform="matrix(6.5275104,0,0,-6.5275104,-1656.4898,573.40508)"
       id="g398">
      <g
         id="g400" />
      <g
         id="g412">
        <g
           clip-path="url(#clipPath404)"
           id="g410"
           style="opacity:0.19999701">
          <g
             transform="translate(126.4863,169.0596)"
             id="g408">
            <path
               d="M 0,0 C -0.769,6.798 4.118,12.933 10.915,13.702 17.712,14.472 23.847,9.584 24.616,2.786 25.386,-4.011 20.499,-10.145 13.701,-10.915 6.904,-11.684 0.77,-6.797 0,0"
               style="fill:#650e81;fill-opacity:1;fill-rule:nonzero;stroke:none"
               id="path406"
               inkscape:connector-curvature="0" />
          </g>
        </g>
      </g>
    </g>
    <g
       transform="matrix(6.5275104,0,0,-6.5275104,-1656.4898,573.40508)"
       id="g414">
      <g
         id="g416" />
      <g
         id="g428">
        <g
           clip-path="url(#clipPath420)"
           id="g426"
           style="opacity:0.19999701">
          <g
             transform="translate(57.8159,161.8545)"
             id="g424">
            <path
               d="M 0,0 C -0.769,6.796 4.117,12.931 10.915,13.701 17.712,14.47 23.846,9.582 24.616,2.786 25.385,-4.012 20.498,-10.146 13.701,-10.916 6.903,-11.685 0.77,-6.798 0,0"
               style="fill:#650e81;fill-opacity:1;fill-rule:nonzero;stroke:none"
               id="path422"
               inkscape:connector-curvature="0" />
          </g>
        </g>
      </g>
    </g>
    <g
       id="g430"
       transform="matrix(6.5275104,0,0,-6.5275104,-830.48236,-538.8599)">
      <path
         d="M 0,0 C -0.723,6.388 3.869,12.152 10.256,12.875 16.644,13.599 22.408,9.006 23.131,2.618 23.854,-3.77 19.262,-9.533 12.875,-10.257 6.487,-10.979 0.723,-6.388 0,0"
         style="fill:#ffffff;fill-opacity:1;fill-rule:nonzero;stroke:none"
         id="path432"
         inkscape:connector-curvature="0" />
    </g>
    <g
       id="g434"
       transform="matrix(6.5275104,0,0,-6.5275104,-1275.2107,-488.52625)">
      <path
         d="M 0,0 C -0.723,6.387 3.869,12.151 10.256,12.875 16.644,13.598 22.408,9.005 23.131,2.618 23.854,-3.77 19.262,-9.534 12.875,-10.257 6.487,-10.979 0.723,-6.388 0,0"
         style="fill:#ffffff;fill-opacity:1;fill-rule:nonzero;stroke:none"
         id="path436"
         inkscape:connector-curvature="0" />
    </g>
    <g
       id="g438"
       transform="matrix(6.5275104,0,0,-6.5275104,-743.64546,-520.89017)">
      <path
         d="M 0,0 C -0.197,1.74 1.055,3.313 2.797,3.511 4.54,3.707 6.111,2.454 6.309,0.714 6.506,-1.028 5.254,-2.601 3.511,-2.798 1.769,-2.995 0.197,-1.742 0,0"
         style="fill:#1e120d;fill-opacity:1;fill-rule:nonzero;stroke:none"
         id="path440"
         inkscape:connector-curvature="0" />
    </g>
    <g
       id="g442"
       transform="matrix(6.5275104,0,0,-6.5275104,-1243.252,-525.50523)">
      <path
         d="M 0,0 C -0.197,1.741 1.055,3.313 2.797,3.511 4.54,3.708 6.111,2.455 6.308,0.715 6.505,-1.027 5.253,-2.6 3.511,-2.797 1.77,-2.994 0.197,-1.741 0,0"
         style="fill:#1e120d;fill-opacity:1;fill-rule:nonzero;stroke:none"
         id="path444"
         inkscape:connector-curvature="0" />
    </g>
    <g
       id="g446"
       transform="matrix(6.5275104,0,0,-6.5275104,-996.23273,-514.85942)">
      <path
         d="m 0,0 -0.01,-0.189 c 0,0 0.2,-6.79 -4.33,-6.88 C -8.88,-7.16 -7.87,1.48 -7.87,1.48 l 0.09,0.3 C -5.72,1.15 -3.27,0.23 0,0"
         style="fill:#ffffff;fill-opacity:1;fill-rule:nonzero;stroke:none"
         id="path448"
         inkscape:connector-curvature="0" />
    </g>
    <g
       id="g450"
       transform="matrix(6.5275104,0,0,-6.5275104,-996.23273,-514.85942)">
      <path
         d="M 0,0 C 0.75,-0.069 1.55,-0.09 2.39,-0.06 13.14,0.3 14.71,6 19.02,2.24 22.23,-0.55 22.46,-8.59 18.07,-14.569 l -0.29,0.21 c 0,0 -13.47,11.109 -23.78,-4.401 l -0.21,-0.25 c -8.66,5.6 -10.38,18.46 -7.89,20.35 2.03,1.54 3.92,1.181 6.32,0.44 l -0.09,-0.3 c 0,0 -1.01,-8.64 3.53,-8.549 4.53,0.09 4.33,6.88 4.33,6.88 z"
         style="fill:#1e120d;fill-opacity:1;fill-rule:nonzero;stroke:none"
         id="path452"
         inkscape:connector-curvature="0" />
    </g>
    <g
       id="g454"
       transform="matrix(6.5275104,0,0,-6.5275104,-880.17172,-421.12898)">
      <path
         d="m 0,0 0.29,-0.21 c -2.73,-3.721 -7.25,-6.65 -13.95,-7.02 -4.19,-0.241 -7.6,0.81 -10.33,2.58 l 0.21,0.25 C -13.47,11.109 0,0 0,0"
         style="fill:#af76b7;fill-opacity:1;fill-rule:nonzero;stroke:none"
         id="path456"
         inkscape:connector-curvature="0" />
    </g>
    <g
       id="g458"
       transform="matrix(6.5275104,0,0,-6.5275104,-646.61867,200.06865)">
      <path
         d="m 0,0 c 0,0 -1.272,-0.49 -3.573,-1.106 -2.303,-0.584 -5.629,-1.414 -9.741,-1.699 -2.054,-0.14 -4.301,-0.156 -6.678,0.117 -2.363,0.29 -4.907,0.87 -7.258,2.215 -1.183,0.644 -2.297,1.5 -3.255,2.533 -0.985,1.025 -1.762,2.206 -2.341,3.576 -0.272,0.548 -0.482,1.378 -0.624,2.162 l -0.058,1.169 c 0.034,0.389 0.096,0.779 0.151,1.169 0.334,1.547 1.174,2.883 2.148,3.966 0.978,1.094 2.088,2.001 3.234,2.794 1.141,0.811 2.323,1.513 3.505,2.176 2.369,1.314 4.761,2.431 7.039,3.537 2.268,1.12 4.482,2.145 6.41,3.334 0.971,0.585 1.847,1.226 2.621,1.901 0.739,0.696 1.332,1.46 1.589,2.26 0.15,0.397 0.147,0.802 0.142,1.2 -0.089,0.385 -0.13,0.828 -0.321,1.092 -0.329,0.558 -1.071,0.94 -1.794,1.131 -1.485,0.385 -2.935,0.333 -4.087,0.269 -1.163,-0.083 -2.08,-0.196 -2.7,-0.296 -0.622,-0.096 -0.947,-0.165 -0.947,-0.165 -0.136,-0.028 -0.27,0.059 -0.299,0.195 -0.027,0.129 0.051,0.257 0.175,0.295 0,0 0.332,0.1 0.955,0.252 0.624,0.148 1.541,0.369 2.738,0.52 1.195,0.136 2.668,0.306 4.417,-0.025 0.851,-0.191 1.875,-0.515 2.595,-1.522 0.363,-0.501 0.44,-1.031 0.572,-1.587 0.045,-0.567 0.051,-1.171 -0.132,-1.742 -0.325,-1.153 -1.058,-2.121 -1.876,-2.952 -0.846,-0.8 -1.78,-1.529 -2.779,-2.185 -1.996,-1.318 -4.188,-2.481 -6.461,-3.627 -2.272,-1.146 -4.609,-2.311 -6.893,-3.601 -1.141,-0.643 -2.269,-1.321 -3.325,-2.078 -1.068,-0.742 -2.064,-1.572 -2.884,-2.502 -0.819,-0.926 -1.472,-1.954 -1.718,-3.057 l -0.118,-0.833 0.034,-0.845 c 0.111,-0.53 0.167,-1.021 0.476,-1.681 l 0.187,-0.463 0.023,-0.058 C -30.82,5.771 -30.88,5.9 -30.868,5.878 l 0.014,-0.024 0.056,-0.101 0.113,-0.2 0.451,-0.798 c 0.36,-0.488 0.682,-1.004 1.105,-1.436 0.795,-0.902 1.733,-1.668 2.765,-2.262 1.018,-0.617 2.114,-1.085 3.229,-1.439 1.106,-0.384 2.241,-0.626 3.354,-0.821 2.236,-0.362 4.408,-0.451 6.41,-0.405 4.009,0.129 7.36,0.595 9.676,1.04 2.322,0.432 3.632,0.771 3.632,0.771 C -0.006,0.218 0.051,0.184 0.066,0.127 0.08,0.074 0.05,0.02 0,0"
         style="fill:#e260a1;fill-opacity:1;fill-rule:nonzero;stroke:none"
         id="path460"
         inkscape:connector-curvature="0" />
    </g>
    <g
       id="g462"
       transform="matrix(6.5275104,0,0,-6.5275104,-785.76165,-83.922962)">
      <path
         d="m 0,0 c 2.024,-1.702 3.733,-3.821 4.619,-6.392 0.92,-2.556 0.475,-5.596 -1.075,-7.831 -0.743,-1.134 -1.66,-2.135 -2.671,-3.002 -0.507,-0.441 -1.01,-0.843 -1.575,-1.244 -0.525,-0.369 -1.063,-0.731 -1.662,-1.064 -2.314,-1.355 -4.779,-2.271 -7.273,-3.059 -4.995,-1.558 -10.108,-2.515 -15.164,-3.547 -2.527,-0.518 -5.053,-1.029 -7.512,-1.689 -1.233,-0.321 -2.438,-0.703 -3.604,-1.142 -1.161,-0.437 -2.272,-0.985 -3.153,-1.679 -0.908,-0.704 -1.319,-1.573 -1.207,-2.536 l 0.003,-0.09 c -0.018,0.068 0.009,-0.049 0.012,-0.065 l 0.052,-0.236 0.105,-0.468 c 0.104,-0.241 0.141,-0.48 0.279,-0.728 0.206,-0.511 0.546,-0.944 0.903,-1.359 0.759,-0.805 1.782,-1.41 2.908,-1.885 1.121,-0.484 2.335,-0.856 3.566,-1.239 2.447,-0.766 5.084,-1.524 7.362,-3.238 1.122,-0.86 2.096,-1.978 2.756,-3.254 0.157,-0.321 0.3,-0.649 0.441,-0.977 l 0.172,-0.503 0.084,-0.252 0.042,-0.125 0.021,-0.063 0.033,-0.149 c 0.054,-0.332 0.134,-0.602 0.166,-0.985 -0.001,-0.414 0.043,-0.878 -0.042,-1.255 -0.24,-1.573 -1.128,-2.872 -2.108,-3.872 -0.996,-1.007 -2.113,-1.817 -3.27,-2.501 -2.32,-1.37 -4.765,-2.392 -7.246,-3.247 -2.481,-0.862 -5,-1.56 -7.534,-2.179 -2.54,-0.615 -5.077,-1.141 -7.675,-1.566 -0.519,-0.085 -1.008,0.267 -1.092,0.786 -0.068,0.412 0.14,0.805 0.489,0.992 l 0.027,0.014 c 1.614,0.862 3.21,1.99 4.573,3.253 1.375,1.261 2.523,2.758 3.125,4.41 l 0.219,0.62 0.114,0.639 c 0.117,0.423 0.079,0.854 0.087,1.283 0.049,0.433 -0.125,0.852 -0.173,1.279 l -0.028,0.161 -0.014,0.08 -0.007,0.04 c -0.008,0.028 0.062,-0.177 0.028,-0.08 l -0.009,0.021 -0.141,0.341 c -0.05,0.124 -0.085,0.09 -0.115,0.148 -0.014,0.019 -0.027,0.039 -0.038,0.062 l -0.095,0.087 c -0.489,0.491 -1.347,0.878 -2.221,1.176 -0.882,0.305 -1.821,0.551 -2.765,0.8 -1.892,0.494 -3.834,0.972 -5.74,1.657 -1.898,0.683 -3.79,1.572 -5.425,2.896 -1.646,1.291 -2.969,3.091 -3.655,5.082 -0.704,1.986 -0.859,4.118 -0.73,6.111 0.138,2.078 0.613,4.071 1.4,5.965 0.794,1.885 1.884,3.624 3.163,5.189 2.572,3.133 5.819,5.568 9.222,7.6 3.411,2.041 7.014,3.69 10.615,5.272 1.792,0.8 3.62,1.557 5.288,2.504 0.767,0.452 1.802,1.168 1.128,1.662 -0.298,0.28 -0.753,0.481 -1.19,0.655 -0.442,0.179 -0.908,0.32 -1.373,0.458 l -0.006,0.002 c -0.134,0.04 -0.209,0.181 -0.17,0.315 0.039,0.13 0.176,0.206 0.307,0.171 0.481,-0.127 0.962,-0.256 1.437,-0.431 0.474,-0.178 0.954,-0.352 1.396,-0.728 0.213,-0.176 0.44,-0.485 0.436,-0.858 -0.011,-0.367 -0.198,-0.656 -0.38,-0.856 -0.372,-0.421 -0.799,-0.703 -1.225,-0.977 -1.719,-1.054 -3.527,-1.829 -5.301,-2.679 -3.559,-1.663 -7.085,-3.379 -10.381,-5.457 -3.28,-2.078 -6.378,-4.492 -8.769,-7.487 -1.187,-1.498 -2.179,-3.138 -2.888,-4.892 -0.701,-1.748 -1.112,-3.635 -1.209,-5.483 -0.097,-1.924 0.087,-3.789 0.721,-5.512 0.32,-0.852 0.739,-1.664 1.294,-2.381 0.53,-0.733 1.184,-1.375 1.91,-1.935 1.441,-1.141 3.177,-1.924 4.97,-2.559 1.802,-0.637 3.686,-1.094 5.6,-1.581 0.958,-0.247 1.925,-0.492 2.903,-0.824 0.968,-0.346 1.994,-0.714 2.926,-1.601 0.212,-0.162 0.506,-0.624 0.635,-0.872 l 0.143,-0.34 0.009,-0.021 c -0.028,0.082 0.05,-0.136 0.043,-0.123 l 0.011,-0.051 0.02,-0.101 0.04,-0.202 c 0.078,-0.544 0.27,-1.074 0.229,-1.633 0,-0.552 0.031,-1.11 -0.101,-1.648 l -0.147,-0.813 c -0.08,-0.261 -0.175,-0.516 -0.263,-0.774 -0.741,-2.053 -2.077,-3.755 -3.577,-5.154 -1.519,-1.412 -3.149,-2.586 -4.997,-3.587 l -0.577,1.792 c 2.5,0.422 5.025,0.959 7.505,1.573 2.482,0.62 4.946,1.319 7.343,2.166 2.393,0.849 4.75,1.81 6.886,3.068 1.069,0.622 2.059,1.349 2.883,2.175 0.819,0.827 1.431,1.785 1.586,2.787 0.064,0.254 0.01,0.448 0.046,0.676 -0.01,0.259 -0.104,0.619 -0.152,0.924 l -0.249,0.748 -0.354,0.791 c -0.527,1.022 -1.283,1.901 -2.206,2.618 -1.872,1.435 -4.301,2.191 -6.757,2.959 -1.233,0.391 -2.495,0.778 -3.746,1.324 -1.245,0.534 -2.506,1.251 -3.525,2.338 -0.485,0.556 -0.941,1.167 -1.225,1.859 -0.172,0.322 -0.267,0.724 -0.394,1.086 l -0.106,0.478 -0.051,0.237 c -0.011,0.063 -0.009,0.024 -0.032,0.172 l -0.011,0.152 c -0.016,0.406 -0.078,0.807 0.028,1.22 0.042,0.205 0.066,0.416 0.132,0.61 l 0.246,0.567 c 0.156,0.389 0.435,0.668 0.658,0.999 0.267,0.265 0.534,0.546 0.819,0.775 1.154,0.906 2.415,1.472 3.67,1.932 1.259,0.454 2.526,0.834 3.798,1.147 2.543,0.645 5.094,1.123 7.636,1.609 5.08,0.961 10.163,1.845 15.064,3.301 2.435,0.738 4.862,1.598 7.047,2.803 0.539,0.279 1.081,0.625 1.622,0.987 0.496,0.335 1.016,0.728 1.49,1.124 0.97,0.792 1.835,1.699 2.532,2.711 1.438,2 1.883,4.597 1.115,6.956 -0.735,2.358 -2.312,4.483 -4.179,6.145 l -0.016,0.014 c -0.138,0.123 -0.15,0.335 -0.028,0.473 C -0.345,0.102 -0.138,0.115 0,0"
         style="fill:#e260a1;fill-opacity:1;fill-rule:nonzero;stroke:none"
         id="path464"
         inkscape:connector-curvature="0" />
    </g>
    <g
       id="g466"
       transform="matrix(6.5275104,0,0,-6.5275104,-1400.725,16.673645)">
      <path
         d="m 0,0 c 0,0 -0.423,0.041 -1.228,0.052 -0.802,0.01 -1.983,-0.021 -3.461,-0.214 -1.467,-0.208 -3.27,-0.566 -5.084,-1.487 -1.782,-0.911 -3.624,-2.444 -4.55,-4.664 -0.537,-1.241 -0.814,-2.371 -0.924,-3.696 -0.043,-1.297 0.172,-2.63 0.715,-3.877 1.119,-2.499 3.558,-4.42 6.411,-5.536 2.882,-1.1 6.144,-1.569 9.452,-1.54 3.247,0.052 6.54,0.804 9.617,2.113 3.079,1.309 5.938,3.142 8.51,5.245 2.578,2.101 4.893,4.456 6.933,6.905 0.499,0.623 0.993,1.24 1.483,1.851 0.468,0.629 0.933,1.252 1.392,1.869 0.436,0.633 0.868,1.26 1.295,1.878 l 0.357,0.514 0.345,0.449 c 0.229,0.298 0.456,0.595 0.682,0.889 1.995,2.43 4.521,4.087 6.934,5.173 2.432,1.103 4.812,1.688 6.924,2.002 2.115,0.319 3.97,0.457 5.498,0.46 1.527,0.025 2.724,-0.059 3.538,-0.128 0.814,-0.066 1.252,-0.133 1.252,-0.133 0.138,-0.021 0.234,-0.148 0.214,-0.286 -0.019,-0.133 -0.14,-0.226 -0.272,-0.216 0,0 -0.42,0.037 -1.225,0.049 C 54.005,7.695 52.825,7.673 51.331,7.586 49.835,7.512 48.027,7.287 45.995,6.878 43.963,6.478 41.718,5.782 39.454,4.695 37.191,3.593 34.956,2.013 33.228,-0.204 33.011,-0.505 32.792,-0.808 32.572,-1.113 L 32.24,-1.572 31.96,-2.003 c -0.419,-0.647 -0.844,-1.304 -1.273,-1.967 -0.455,-0.646 -0.915,-1.3 -1.379,-1.96 -0.496,-0.637 -0.996,-1.281 -1.501,-1.93 -2.073,-2.553 -4.425,-5.043 -7.107,-7.259 -2.683,-2.208 -5.69,-4.157 -8.972,-5.567 -3.278,-1.402 -6.858,-2.18 -10.413,-2.211 -3.483,-0.017 -6.958,0.547 -10.111,1.817 -3.126,1.263 -5.933,3.561 -7.153,6.592 -0.596,1.502 -0.791,3.085 -0.686,4.577 0.146,1.461 0.611,2.958 1.153,4.074 1.165,2.591 3.335,4.169 5.312,5.036 2.006,0.881 3.892,1.14 5.414,1.273 1.53,0.126 2.734,0.048 3.548,-0.017 C -0.395,0.386 0.039,0.311 0.039,0.311 0.125,0.298 0.184,0.218 0.17,0.133 0.158,0.051 0.081,-0.006 0,0"
         style="fill:#e260a1;fill-opacity:1;fill-rule:nonzero;stroke:none"
         id="path468"
         inkscape:connector-curvature="0" />
    </g>
    <g
       id="g470"
       transform="matrix(6.5275104,0,0,-6.5275104,-897.12489,-682.05064)">
      <path
         d="m 0,0 c 0,2.394 -1.94,4.333 -4.333,4.333 -2.393,0 -4.333,-1.939 -4.333,-4.333 0,-2.394 1.94,-4.333 4.333,-4.333 C -1.94,-4.333 0,-2.394 0,0"
         style="fill:#f2d67e;fill-opacity:1;fill-rule:nonzero;stroke:none"
         id="path472"
         inkscape:connector-curvature="0" />
    </g>
    <g
       id="g474"
       transform="matrix(6.5275104,0,0,-6.5275104,-827.49595,-200.09832)">
      <path
         d="m 0,0 c 0,-5.799 -4.701,-10.5 -10.5,-10.5 -5.799,0 -10.5,4.701 -10.5,10.5 0,5.799 4.701,10.5 10.5,10.5 C -4.701,10.5 0,5.799 0,0"
         style="fill:#f2d67e;fill-opacity:1;fill-rule:nonzero;stroke:none"
         id="path476"
         inkscape:connector-curvature="0" />
    </g>
    <g
       id="g478"
       transform="matrix(6.5275104,0,0,-6.5275104,-1068.1881,-524.09658)">
      <path
         d="m 0,0 c -0.915,0 -1.677,-0.269 -2.472,-0.872 -0.256,-0.194 -0.719,-1.131 -0.638,-3.284 0.185,-4.914 2.913,-11.838 8.466,-15.429 2.8,-1.815 6.032,-2.633 9.73,-2.422 7.192,0.398 11.148,3.817 13.202,6.614 4.076,5.552 3.934,12.999 1.099,15.463 -1.049,0.915 -1.729,1.033 -2.205,1.033 -0.839,0 -1.824,-0.437 -3.071,-0.991 -2.292,-1.017 -5.432,-2.411 -10.664,-2.586 -0.871,-0.031 -1.722,-0.009 -2.516,0.063 -2.88,0.203 -5.188,0.936 -7.043,1.526 C 3.566,-0.783 3.254,-0.684 2.951,-0.591 1.799,-0.235 0.858,0 0,0 m 13.97,-24.039 c -3.596,0 -6.86,0.934 -9.7,2.775 -6.153,3.978 -9.175,11.618 -9.378,17.033 -0.065,1.716 0.13,3.968 1.427,4.953 C -2.546,1.582 -1.342,2 0,2 1.108,2 2.216,1.729 3.539,1.321 3.846,1.227 4.165,1.125 4.494,1.021 c 1.845,-0.586 3.936,-1.25 6.6,-1.439 0.74,-0.067 1.492,-0.088 2.283,-0.058 4.846,0.163 7.78,1.465 9.923,2.416 1.463,0.65 2.619,1.163 3.882,1.163 1.209,0 2.327,-0.485 3.519,-1.524 3.535,-3.073 3.957,-11.674 -0.801,-18.155 -2.308,-3.146 -6.732,-6.987 -14.701,-7.427 -0.416,-0.024 -0.826,-0.036 -1.229,-0.036"
         style="fill:#f2d67e;fill-opacity:1;fill-rule:nonzero;stroke:none"
         id="path480"
         inkscape:connector-curvature="0" />
    </g>
    <text
       xml:space="preserve"
       style="font-style:normal;font-variant:normal;font-weight:normal;font-stretch:normal;font-size:26.66666603px;line-height:150;font-family:sans-serif;-inkscape-font-specification:sans-serif;letter-spacing:0px;word-spacing:0px;fill:#000000;fill-opacity:1;stroke:none"
       x="-908.28564"
       y="258.23395"
       id="text3758"><tspan
         sodipodi:role="line"
         id="tspan3756"
         x="-908.28564"
         y="258.23395">image by Freepik (www.freepik.com)</tspan></text>
  </g>
</svg>
