<?xml version="1.0" encoding="UTF-8" standalone="no"?>
<!-- Created with Inkscape (http://www.inkscape.org/) -->

<svg
   xmlns:dc="http://purl.org/dc/elements/1.1/"
   xmlns:cc="http://creativecommons.org/ns#"
   xmlns:rdf="http://www.w3.org/1999/02/22-rdf-syntax-ns#"
   xmlns:svg="http://www.w3.org/2000/svg"
   xmlns="http://www.w3.org/2000/svg"
   xmlns:sodipodi="http://sodipodi.sourceforge.net/DTD/sodipodi-0.dtd"
   xmlns:inkscape="http://www.inkscape.org/namespaces/inkscape"
   width="1000"
   height="864.14276"
   viewBox="0 0 1000 864.14276"
   version="1.1"
   id="svg2318"
   inkscape:version="0.92.3 (2405546, 2018-03-11)"
   sodipodi:docname="monster_flying.svg">
  <title
     id="title2983">flying monster</title>
  <defs
     id="defs2312">
    <clipPath
       clipPathUnits="userSpaceOnUse"
       id="clipPath536">
      <path
         d="m 253.238,420.636 h 14.826 v -14.824 h -14.826 z"
         id="path534"
         inkscape:connector-curvature="0" />
    </clipPath>
    <clipPath
       clipPathUnits="userSpaceOnUse"
       id="clipPath520">
      <path
         d="m 221.652,418.255 h 14.826 V 403.43 h -14.826 z"
         id="path518"
         inkscape:connector-curvature="0" />
    </clipPath>
  </defs>
  <sodipodi:namedview
     id="base"
     pagecolor="#ffffff"
     bordercolor="#666666"
     borderopacity="1.0"
     inkscape:pageopacity="0.0"
     inkscape:pageshadow="2"
     inkscape:zoom="0.35"
     inkscape:cx="1556.6797"
     inkscape:cy="78.723218"
     inkscape:document-units="px"
     inkscape:current-layer="layer1"
     showgrid="false"
     inkscape:pagecheckerboard="true"
     units="px"
     inkscape:window-width="1920"
     inkscape:window-height="1017"
     inkscape:window-x="1912"
     inkscape:window-y="-8"
     inkscape:window-maximized="1" />
  <metadata
     id="metadata2315">
    <rdf:RDF>
      <cc:Work
         rdf:about="">
        <dc:format>image/svg+xml</dc:format>
        <dc:type
           rdf:resource="http://purl.org/dc/dcmitype/StillImage" />
        <dc:title>flying monster</dc:title>
      </cc:Work>
    </rdf:RDF>
  </metadata>
  <g
     inkscape:label="Layer 1"
     inkscape:groupmode="layer"
     id="layer1"
     transform="translate(1643.8226,337.18561)">
    <g
       id="g482"
       transform="matrix(6.5240083,0,0,-6.5240083,-1343.5225,-78.536317)">
      <path
         d="m 0,0 c -0.89,-0.98 -1.76,-2 -2.57,-3.07 -7.14,5.07 -18.1,-9.57 -18.1,-9.57 -2.81,15.97 -17.15,10.97 -17.15,10.97 1.2,8.97 -8.21,12.05 -8.21,12.05 2.45,7.21 19.42,19.28 22.22,20.04 2.81,0.76 3.99,-3.67 8.64,-11.66 C -8.73,7.7 -1.87,1.56 0,0"
         style="fill:#8b498e;fill-opacity:1;fill-rule:nonzero;stroke:none"
         id="path484"
         inkscape:connector-curvature="0" />
    </g>
    <g
       id="g486"
       transform="matrix(6.5240083,0,0,-6.5240083,-643.8226,-230.21949)">
      <path
         d="m 0,0 c 0,0 -8.83,-4.5 -6.26,-13.17 0,0 -14.929,2.73 -15.25,-13.49 0,0 -13.56,13.24 -19.69,6.34 -1.05,0.79 -2.14,1.54 -3.27,2.25 l 0.16,0.25 c 0,0 7.06,7.38 12.52,21.35 3.37,8.61 3.86,13.17 6.75,12.85 C -22.149,16.06 -3.53,6.74 0,0"
         style="fill:#8b498e;fill-opacity:1;fill-rule:nonzero;stroke:none"
         id="path488"
         inkscape:connector-curvature="0" />
    </g>
    <g
       id="g490"
       transform="matrix(6.5240083,0,0,-6.5240083,-912.61305,-97.652947)">
      <path
         d="m 0,0 c 17.551,-13.13 25.09,-35.72 19.69,-52.58 -8.03,-25.05 -43.78,-33.5 -66.48,-28.26 -20.34,4.7 -35.32,20.87 -32.11,47.85 1.28,10.73 4.84,19.88 10.28,26.99 0.81,1.07 1.681,2.09 2.57,3.07 8.19,8.86 19.77,13.79 33.71,13.61 C -21.02,10.54 -11.25,7.34 -3.27,2.25 -2.14,1.54 -1.05,0.79 0,0"
         style="fill:#cc99cc;fill-opacity:1;fill-rule:nonzero;stroke:none"
         id="path492"
         inkscape:connector-curvature="0" />
    </g>
    <g
       id="g494"
       transform="matrix(6.5240083,0,0,-6.5240083,-1105.6382,-162.5427)">
      <path
         d="m 0,0 c 0,0 -8.889,10.718 -11.241,8.365 -2.353,-2.352 1.307,-4.444 1.307,-4.444 0,0 -6.274,0.785 -6.536,-1.568 -0.261,-2.353 7.581,-1.83 7.581,-1.83 0,0 -4.705,-3.922 -2.352,-7.059 2.352,-3.137 6.535,3.137 6.535,3.137"
         style="fill:#cc99cc;fill-opacity:1;fill-rule:nonzero;stroke:none"
         id="path496"
         inkscape:connector-curvature="0" />
    </g>
    <g
       id="g498"
       transform="matrix(6.5240083,0,0,-6.5240083,-869.28974,-210.02638)">
      <path
         d="m 0,0 c 0,0 1.293,-1.141 3.017,-3.056 0.839,-0.976 1.848,-2.096 2.8,-3.4 0.492,-0.64 0.974,-1.319 1.454,-2.018 0.495,-0.689 0.948,-1.423 1.409,-2.151 0.449,-0.736 0.849,-1.503 1.268,-2.241 0.378,-0.762 0.756,-1.509 1.098,-2.243 0.313,-0.748 0.611,-1.474 0.86,-2.174 0.222,-0.71 0.432,-1.381 0.626,-2 0.134,-0.635 0.258,-1.217 0.366,-1.734 0.129,-0.51 0.121,-0.98 0.174,-1.353 0.065,-0.751 0.102,-1.18 0.102,-1.18 0.006,-0.069 -0.046,-0.13 -0.115,-0.136 -0.064,-0.005 -0.121,0.039 -0.134,0.1 l -0.003,0.015 c 0,0 -0.086,0.416 -0.235,1.144 -0.087,0.361 -0.119,0.81 -0.292,1.3 -0.146,0.493 -0.311,1.049 -0.491,1.656 -0.223,0.592 -0.466,1.233 -0.722,1.911 -0.276,0.67 -0.632,1.351 -0.94,2.078 -0.349,0.71 -0.734,1.433 -1.118,2.169 -0.428,0.715 -0.835,1.456 -1.29,2.169 -0.464,0.708 -0.88,1.446 -1.361,2.128 -0.461,0.695 -0.926,1.373 -1.4,2.012 -0.933,1.287 -1.819,2.481 -2.611,3.481 -0.806,0.987 -1.455,1.832 -1.944,2.394 -0.482,0.568 -0.756,0.894 -0.756,0.894 -0.061,0.07 -0.053,0.176 0.017,0.236 C -0.156,0.057 -0.062,0.054 0,0"
         style="fill:#432147;fill-opacity:1;fill-rule:nonzero;stroke:none"
         id="path500"
         inkscape:connector-curvature="0" />
    </g>
    <g
       id="g502"
       transform="matrix(6.5240083,0,0,-6.5240083,-851.5588,-245.92149)">
      <path
         d="m 0,0 c 0,0 1.902,-0.323 4.664,-1.153 1.37,-0.444 2.984,-0.936 4.647,-1.642 0.839,-0.332 1.692,-0.711 2.551,-1.114 0.869,-0.38 1.72,-0.84 2.576,-1.285 0.849,-0.458 1.662,-0.985 2.48,-1.467 0.786,-0.538 1.566,-1.058 2.298,-1.593 0.708,-0.569 1.397,-1.113 2.011,-1.675 0.592,-0.587 1.165,-1.128 1.668,-1.65 0.459,-0.563 0.88,-1.078 1.254,-1.535 0.389,-0.443 0.611,-0.922 0.852,-1.266 0.439,-0.72 0.691,-1.13 0.691,-1.13 0.037,-0.059 0.018,-0.137 -0.041,-0.173 -0.055,-0.034 -0.127,-0.02 -0.165,0.03 l -0.01,0.014 c 0,0 -0.289,0.377 -0.796,1.036 -0.266,0.319 -0.512,0.761 -0.931,1.164 -0.395,0.418 -0.84,0.89 -1.325,1.405 -0.518,0.483 -1.104,0.98 -1.706,1.519 -0.62,0.521 -1.337,0.995 -2.026,1.547 -0.723,0.509 -1.496,1.001 -2.272,1.512 -0.812,0.456 -1.614,0.956 -2.455,1.39 -0.846,0.424 -1.663,0.905 -2.516,1.286 -0.839,0.408 -1.673,0.793 -2.495,1.132 -1.635,0.7 -3.179,1.318 -4.519,1.808 -1.347,0.466 -2.465,0.881 -3.262,1.121 -0.795,0.25 -1.249,0.393 -1.249,0.393 -0.089,0.027 -0.14,0.12 -0.112,0.209 C -0.164,-0.036 -0.081,0.013 0,0"
         style="fill:#432147;fill-opacity:1;fill-rule:nonzero;stroke:none"
         id="path504"
         inkscape:connector-curvature="0" />
    </g>
    <g
       id="g506"
       transform="matrix(6.5240083,0,0,-6.5240083,-1417.4337,-158.24533)">
      <path
         d="m 0,0 c 0,0 -0.216,-0.361 -0.594,-0.994 -0.388,-0.626 -0.887,-1.554 -1.517,-2.646 -0.616,-1.101 -1.29,-2.407 -1.999,-3.811 -0.362,-0.698 -0.709,-1.432 -1.05,-2.183 -0.363,-0.742 -0.655,-1.527 -0.996,-2.291 -0.336,-0.767 -0.616,-1.554 -0.923,-2.319 -0.258,-0.78 -0.512,-1.548 -0.758,-2.291 -0.188,-0.758 -0.429,-1.478 -0.597,-2.175 -0.147,-0.702 -0.286,-1.365 -0.414,-1.977 -0.082,-0.621 -0.158,-1.189 -0.225,-1.693 -0.094,-0.505 -0.058,-0.949 -0.087,-1.314 -0.035,-0.735 -0.055,-1.155 -0.055,-1.155 l -10e-4,-0.014 c -0.003,-0.07 -0.062,-0.123 -0.131,-0.12 -0.065,0.003 -0.115,0.054 -0.12,0.117 0,0 -0.03,0.425 -0.083,1.168 -0.006,0.373 -0.084,0.83 -0.038,1.348 0.027,0.522 0.058,1.11 0.091,1.751 0.094,0.635 0.196,1.323 0.304,2.05 0.138,0.722 0.313,1.477 0.505,2.257 0.223,0.768 0.471,1.558 0.725,2.36 0.295,0.786 0.565,1.597 0.89,2.385 0.334,0.784 0.664,1.571 1.039,2.321 0.359,0.758 0.724,1.497 1.102,2.199 0.724,1.422 1.533,2.674 2.199,3.759 1.379,2.143 2.46,3.461 2.46,3.461 0.058,0.072 0.164,0.083 0.236,0.024 C 0.028,0.164 0.042,0.07 0,0"
         style="fill:#432147;fill-opacity:1;fill-rule:nonzero;stroke:none"
         id="path508"
         inkscape:connector-curvature="0" />
    </g>
    <g
       id="g510"
       transform="matrix(6.5240083,0,0,-6.5240083,-1441.6214,-190.51178)">
      <path
         d="m 0,0 c 0,0 -0.415,-0.203 -1.142,-0.557 -0.731,-0.345 -1.743,-0.905 -2.968,-1.547 -1.216,-0.662 -2.608,-1.478 -4.075,-2.386 -0.741,-0.444 -1.484,-0.934 -2.23,-1.447 -0.764,-0.487 -1.476,-1.069 -2.227,-1.597 -0.743,-0.539 -1.441,-1.133 -2.154,-1.689 -0.667,-0.605 -1.34,-1.186 -1.958,-1.781 -0.58,-0.63 -1.202,-1.186 -1.718,-1.778 -0.5,-0.605 -0.991,-1.165 -1.415,-1.705 -0.391,-0.564 -0.75,-1.081 -1.069,-1.54 -0.341,-0.447 -0.516,-0.906 -0.724,-1.25 -0.391,-0.706 -0.614,-1.109 -0.614,-1.109 l -0.009,-0.015 c -0.033,-0.06 -0.11,-0.082 -0.171,-0.049 -0.056,0.032 -0.079,0.1 -0.055,0.158 0,0 0.181,0.432 0.499,1.187 0.18,0.366 0.323,0.856 0.63,1.339 0.291,0.494 0.62,1.051 0.979,1.658 0.404,0.577 0.876,1.178 1.358,1.828 0.504,0.632 1.087,1.253 1.684,1.903 0.622,0.623 1.298,1.232 1.971,1.865 0.716,0.582 1.421,1.204 2.168,1.77 0.758,0.55 1.507,1.116 2.287,1.606 0.767,0.51 1.53,0.997 2.288,1.437 1.495,0.918 2.975,1.619 4.227,2.242 2.533,1.19 4.314,1.769 4.314,1.769 C -0.036,0.34 0.059,0.292 0.087,0.204 0.114,0.123 0.074,0.036 0,0"
         style="fill:#432147;fill-opacity:1;fill-rule:nonzero;stroke:none"
         id="path512"
         inkscape:connector-curvature="0" />
    </g>
    <g
       transform="matrix(6.5240083,0,0,-6.5240083,-2727.4597,2660.502)"
       id="g514">
      <g
         id="g516" />
      <g
         id="g528">
        <g
           clip-path="url(#clipPath520)"
           id="g526"
           style="opacity:0.19999701">
          <g
             transform="translate(236.4775,410.8423)"
             id="g524">
            <path
               d="m 0,0 c 0,4.094 -3.32,7.413 -7.413,7.413 -4.093,0 -7.413,-3.319 -7.413,-7.413 0,-4.094 3.32,-7.412 7.413,-7.412 C -3.32,-7.412 0,-4.094 0,0"
               style="fill:#650e81;fill-opacity:1;fill-rule:nonzero;stroke:none"
               id="path522"
               inkscape:connector-curvature="0" />
          </g>
        </g>
      </g>
    </g>
    <g
       transform="matrix(6.5240083,0,0,-6.5240083,-2727.4597,2660.502)"
       id="g530">
      <g
         id="g532" />
      <g
         id="g544">
        <g
           clip-path="url(#clipPath536)"
           id="g542"
           style="opacity:0.19999701">
          <g
             transform="translate(268.0645,413.2241)"
             id="g540">
            <path
               d="m 0,0 c 0,4.094 -3.319,7.412 -7.413,7.412 -4.094,0 -7.413,-3.318 -7.413,-7.412 0,-4.094 3.319,-7.413 7.413,-7.413 C -3.319,-7.413 0,-4.094 0,0"
               style="fill:#650e81;fill-opacity:1;fill-rule:nonzero;stroke:none"
               id="path538"
               inkscape:connector-curvature="0" />
          </g>
        </g>
      </g>
    </g>
    <g
       id="g546"
       transform="matrix(6.5240083,0,0,-6.5240083,-1187.112,-22.098487)">
      <path
         d="m 0,0 c 0,3.784 -3.068,6.851 -6.852,6.851 -3.783,0 -6.851,-3.067 -6.851,-6.851 0,-3.784 3.068,-6.851 6.851,-6.851 C -3.068,-6.851 0,-3.784 0,0"
         style="fill:#ffffff;fill-opacity:1;fill-rule:nonzero;stroke:none"
         id="path548"
         inkscape:connector-curvature="0" />
    </g>
    <g
       id="g550"
       transform="matrix(6.5240083,0,0,-6.5240083,-984.58136,-37.461747)">
      <path
         d="m 0,0 c 0,3.784 -3.068,6.851 -6.852,6.851 -3.784,0 -6.851,-3.067 -6.851,-6.851 0,-3.784 3.067,-6.851 6.851,-6.851 C -3.068,-6.851 0,-3.784 0,0"
         style="fill:#ffffff;fill-opacity:1;fill-rule:nonzero;stroke:none"
         id="path552"
         inkscape:connector-curvature="0" />
    </g>
    <g
       id="g554"
       transform="matrix(6.5240083,0,0,-6.5240083,-1223.4272,-22.104217)">
      <path
         d="m 0,0 c 0,-0.91 -0.527,-1.647 -1.177,-1.647 -0.65,0 -1.177,0.737 -1.177,1.647 0,0.91 0.527,1.647 1.177,1.647 C -0.527,1.647 0,0.91 0,0"
         style="fill:#1e120d;fill-opacity:1;fill-rule:nonzero;stroke:none"
         id="path556"
         inkscape:connector-curvature="0" />
    </g>
    <g
       id="g558"
       transform="matrix(6.5240083,0,0,-6.5240083,-1021.6038,-35.372197)">
      <path
         d="m 0,0 c 0,-0.91 -0.527,-1.648 -1.177,-1.648 -0.65,0 -1.177,0.738 -1.177,1.648 0,0.91 0.527,1.647 1.177,1.647 C -0.527,1.647 0,0.91 0,0"
         style="fill:#1e120d;fill-opacity:1;fill-rule:nonzero;stroke:none"
         id="path560"
         inkscape:connector-curvature="0" />
    </g>
    <g
       id="g562"
       transform="matrix(6.5240083,0,0,-6.5240083,-1012.493,30.740813)">
      <path
         d="m 0,0 0.1,-0.25 c 0,0 -2.25,-6.21 -2.57,-6.21 -0.32,0 -3.1,4.71 -3.1,4.71 l -0.01,0.06 C -3.44,-1.2 -1.59,-0.62 0,0"
         style="fill:#ffffff;fill-opacity:1;fill-rule:nonzero;stroke:none"
         id="path564"
         inkscape:connector-curvature="0" />
    </g>
    <g
       id="g566"
       transform="matrix(6.5240083,0,0,-6.5240083,-1207.3658,74.255243)">
      <path
         d="m 0,0 c -0.86,0.1 -4.28,4.81 -4.28,4.81 l 0.07,0.26 C -2.6,4.67 -0.73,4.32 1.4,4.05 L 1.39,3.96 C 1.39,3.96 0.86,-0.11 0,0"
         style="fill:#ffffff;fill-opacity:1;fill-rule:nonzero;stroke:none"
         id="path568"
         inkscape:connector-curvature="0" />
    </g>
    <g
       id="g570"
       transform="matrix(6.5240083,0,0,-6.5240083,-1170.1333,421.34622)">
      <path
         d="m 0,0 c 0,0 -0.107,-6.529 0.428,-7.708 2.075,-4.561 3.372,2.57 6.744,2.409 1.301,-0.061 3.317,-8.189 2.033,-8.831 -1.284,-0.642 -3.425,4.711 -3.425,4.711 0,0 -1.092,-5.119 -5.994,-4.497 -6.744,0.856 -6.423,14.558 -6.423,14.558 0,0 4.511,1.076 6.637,-0.642"
         style="fill:#8b498e;fill-opacity:1;fill-rule:nonzero;stroke:none"
         id="path572"
         inkscape:connector-curvature="0" />
    </g>
    <g
       id="g574"
       transform="matrix(6.5240083,0,0,-6.5240083,-953.61126,394.77271)">
      <path
         d="m 0,0 c 0,0 1.048,-6.447 1.783,-7.511 2.849,-4.123 2.864,3.125 6.212,3.562 1.292,0.169 4.713,-7.474 3.563,-8.332 -1.153,-0.86 -4.204,4.031 -4.204,4.031 0,0 -0.17,-5.231 -5.106,-5.485 -6.789,-0.35 -8.894,13.194 -8.894,13.194 0,0 3.792,2.249 6.646,0.541"
         style="fill:#8b498e;fill-opacity:1;fill-rule:nonzero;stroke:none"
         id="path576"
         inkscape:connector-curvature="0" />
    </g>
    <g
       id="g578"
       transform="matrix(6.5240083,0,0,-6.5240083,-1273.9981,159.35712)">
      <path
         d="m 0,0 c 0,0 3.024,-6.358 6.513,-4.962 1.494,0.598 2.201,2.758 2.201,2.758 0,0 -1.209,2.086 -0.584,3.087 0.626,1.001 1.795,-1.043 1.795,-1.043 0,0 1.335,3.964 2.336,3.588 1,-0.375 -0.418,-3.713 -0.418,-3.713 0,0 1.669,3.838 2.42,3.087 0.75,-0.75 -0.667,-3.713 -0.667,-3.713 0,0 1.721,3.26 2.221,2.384 0.501,-0.876 -2.791,-12.367 -9.885,-11.785 -8.482,0.695 -9.357,9.151 -9.357,9.151 0,0 1.331,1.782 3.425,1.161"
         style="fill:#8b498e;fill-opacity:1;fill-rule:nonzero;stroke:none"
         id="path580"
         inkscape:connector-curvature="0" />
    </g>
    <g
       id="g582"
       transform="matrix(6.5240083,0,0,-6.5240083,-963.57537,132.73516)">
      <path
         d="m 0,0 c 0,0 -1.545,-6.869 -5.256,-6.278 -1.589,0.253 -2.757,2.203 -2.757,2.203 0,0 0.719,2.302 -0.111,3.14 -0.832,0.838 -1.521,-1.414 -1.521,-1.414 0,0 -2.176,3.571 -3.071,2.984 -0.891,-0.588 1.229,-3.529 1.229,-3.529 0,0 -2.476,3.374 -3.042,2.476 -0.566,-0.897 1.471,-3.474 1.471,-3.474 0,0 -2.399,2.799 -2.694,1.834 -0.295,-0.964 5.454,-11.444 12.245,-9.309 8.118,2.551 7.105,10.992 7.105,10.992 0,0 -1.693,1.443 -3.598,0.375"
         style="fill:#8b498e;fill-opacity:1;fill-rule:nonzero;stroke:none"
         id="path584"
         inkscape:connector-curvature="0" />
    </g>
    <g
       id="g586"
       transform="matrix(6.5240083,0,0,-6.5240083,-1106.9607,-161.44405)">
      <path
         d="m 0,0 c -1.103,1.261 -2.257,2.487 -3.449,3.664 -1.199,1.167 -2.419,2.321 -3.742,3.308 -0.661,0.486 -1.352,0.947 -2.068,1.237 -0.353,0.142 -0.723,0.234 -1.014,0.199 -0.295,-0.029 -0.43,-0.17 -0.702,-0.508 -0.213,-0.27 -0.352,-0.59 -0.378,-0.898 -0.021,-0.312 0.061,-0.634 0.239,-0.942 0.345,-0.615 0.987,-1.164 1.622,-1.552 C -9.263,4.37 -9.188,4.073 -9.327,3.843 -9.426,3.678 -9.611,3.594 -9.792,3.611 -11.036,3.739 -12.336,3.78 -13.56,3.629 -14.167,3.553 -14.775,3.411 -15.234,3.155 -15.459,3.025 -15.632,2.869 -15.71,2.696 -15.744,2.618 -15.778,2.494 -15.774,2.433 l -0.001,-0.122 c 0.007,-0.013 0.014,-0.015 0.016,-0.023 -0.007,-0.006 0.022,-0.05 0.033,-0.083 0.066,-0.143 0.276,-0.3 0.517,-0.42 0.245,-0.122 0.532,-0.213 0.823,-0.289 0.588,-0.153 1.216,-0.234 1.844,-0.293 1.261,-0.107 2.558,-0.111 3.825,-0.045 0.258,0.013 0.478,-0.185 0.491,-0.444 0.012,-0.226 -0.14,-0.423 -0.352,-0.477 L -8.586,0.235 c -1.147,-0.29 -2.39,-0.729 -3.195,-1.493 -0.395,-0.388 -0.58,-0.849 -0.464,-1.339 0.05,-0.245 0.173,-0.495 0.331,-0.731 0.037,-0.052 0.086,-0.133 0.112,-0.162 l 0.151,-0.186 c 0.104,-0.119 0.181,-0.19 0.288,-0.285 0.846,-0.74 2.132,-0.791 3.309,-0.513 1.188,0.277 2.354,0.812 3.402,1.461 l 0.013,0.008 c 0.123,0.076 0.285,0.038 0.362,-0.085 0.075,-0.121 0.04,-0.279 -0.077,-0.358 -1.091,-0.732 -2.254,-1.322 -3.54,-1.676 -0.641,-0.169 -1.317,-0.272 -2.013,-0.214 -0.693,0.05 -1.403,0.308 -1.962,0.769 -0.136,0.111 -0.291,0.261 -0.397,0.38 l -0.155,0.182 c -0.078,0.092 -0.109,0.15 -0.165,0.227 -0.201,0.288 -0.378,0.615 -0.468,0.994 -0.094,0.373 -0.086,0.798 0.044,1.176 0.128,0.38 0.355,0.699 0.607,0.961 0.511,0.522 1.114,0.861 1.72,1.146 0.615,0.281 1.23,0.489 1.897,0.651 l 0.131,-0.923 c -1.328,-0.077 -2.637,-0.081 -3.968,0.022 -0.664,0.058 -1.331,0.138 -2.003,0.307 -0.337,0.087 -0.675,0.188 -1.014,0.354 -0.33,0.171 -0.701,0.384 -0.947,0.821 -0.054,0.114 -0.113,0.212 -0.14,0.369 -0.015,0.071 -0.027,0.149 -0.035,0.216 l 0.001,0.122 c 10e-4,0.264 0.063,0.458 0.153,0.678 0.194,0.424 0.543,0.71 0.874,0.904 0.68,0.381 1.375,0.504 2.05,0.594 1.359,0.155 2.675,0.101 4.012,-0.044 L -9.971,3.671 c -0.412,0.25 -0.755,0.515 -1.093,0.83 -0.332,0.315 -0.643,0.669 -0.879,1.1 -0.24,0.422 -0.389,0.946 -0.346,1.479 0.051,0.535 0.277,1.011 0.586,1.399 0.179,0.22 0.255,0.322 0.525,0.542 0.243,0.177 0.54,0.272 0.813,0.295 C -9.81,9.36 -9.345,9.203 -8.922,9.03 -8.081,8.666 -7.371,8.161 -6.686,7.638 -5.331,6.576 -4.105,5.395 -2.942,4.16 -1.778,2.925 -0.665,1.654 0.405,0.337 0.497,0.224 0.48,0.058 0.367,-0.034 0.257,-0.124 0.093,-0.106 0,0"
         style="fill:#6e5170;fill-opacity:1;fill-rule:nonzero;stroke:none"
         id="path588"
         inkscape:connector-curvature="0" />
    </g>
    <g
       id="g590"
       transform="matrix(6.5240083,0,0,-6.5240083,-1291.5979,13.643983)">
      <path
         d="m 0,0 c 0,0 0.043,-0.034 0.126,-0.098 0.083,-0.064 0.206,-0.168 0.371,-0.263 0.334,-0.201 0.78,-0.531 1.467,-0.843 0.331,-0.165 0.699,-0.348 1.099,-0.547 0.42,-0.16 0.875,-0.331 1.361,-0.515 0.491,-0.172 0.994,-0.397 1.556,-0.556 0.564,-0.153 1.157,-0.313 1.776,-0.48 0.623,-0.152 1.253,-0.378 1.938,-0.489 0.683,-0.113 1.39,-0.231 2.117,-0.352 0.727,-0.115 1.47,-0.256 2.235,-0.361 0.773,-0.061 1.562,-0.124 2.365,-0.187 1.606,-0.119 3.259,-0.322 4.958,-0.246 1.688,0.01 3.403,0.02 5.118,0.03 1.725,0.13 3.49,0.167 5.139,0.406 1.672,0.158 3.306,0.469 4.885,0.757 0.781,0.183 1.548,0.362 2.3,0.538 0.746,0.191 1.461,0.425 2.168,0.627 1.393,0.453 2.683,0.958 3.835,1.503 1.149,0.551 2.162,1.128 3.031,1.687 0.849,0.582 1.558,1.135 2.093,1.64 0.535,0.503 0.922,0.932 1.153,1.239 0.242,0.308 0.328,0.461 0.328,0.461 0.105,0.192 0.346,0.262 0.537,0.157 0.187,-0.103 0.256,-0.337 0.162,-0.527 0,10e-4 -0.119,-0.232 -0.365,-0.576 C 51.512,2.648 51.118,2.169 50.572,1.604 50.027,1.038 49.309,0.417 48.441,-0.24 47.559,-0.871 46.528,-1.538 45.338,-2.136 44.151,-2.739 42.824,-3.3 41.392,-3.809 c -0.723,-0.23 -1.46,-0.491 -2.226,-0.71 -0.771,-0.194 -1.56,-0.393 -2.361,-0.595 -1.621,-0.311 -3.293,-0.645 -5.028,-0.826 -1.735,-0.262 -3.451,-0.31 -5.188,-0.456 -1.759,0 -3.518,0.001 -5.249,0.001 -1.726,-0.059 -3.42,0.162 -5.06,0.3 -0.82,0.074 -1.626,0.148 -2.414,0.22 -0.783,0.13 -1.545,0.296 -2.288,0.437 -0.742,0.145 -1.464,0.287 -2.161,0.424 -0.699,0.135 -1.35,0.386 -1.986,0.561 -0.634,0.192 -1.24,0.377 -1.817,0.552 -0.571,0.195 -1.089,0.456 -1.587,0.66 -0.494,0.216 -0.956,0.419 -1.383,0.606 -0.409,0.231 -0.785,0.443 -1.124,0.634 -0.685,0.353 -1.188,0.756 -1.538,0.998 -0.18,0.122 -0.291,0.227 -0.371,0.295 -0.08,0.068 -0.121,0.104 -0.121,0.104 -0.165,0.142 -0.184,0.392 -0.042,0.557 0.138,0.16 0.376,0.183 0.541,0.055 z"
         style="fill:#1e120d;fill-opacity:1;fill-rule:nonzero;stroke:none"
         id="path592"
         inkscape:connector-curvature="0" />
    </g>
    <text
       xml:space="preserve"
       style="font-style:normal;font-variant:normal;font-weight:normal;font-stretch:normal;font-size:21.33333397px;line-height:150;font-family:sans-serif;-inkscape-font-specification:sans-serif;letter-spacing:0px;word-spacing:0px;fill:#000000;fill-opacity:1;stroke:none"
       x="-1085.7142"
       y="522.51965"
       id="text2981"><tspan
         sodipodi:role="line"
         id="tspan2979"
         x="-1085.7142"
         y="522.51965">image by Freekpik (www.freekpik.com)</tspan></text>
  </g>
</svg>
