<?xml version="1.0" encoding="UTF-8" standalone="no"?>
<!-- Created with Inkscape (http://www.inkscape.org/) -->

<svg
   xmlns:dc="http://purl.org/dc/elements/1.1/"
   xmlns:cc="http://creativecommons.org/ns#"
   xmlns:rdf="http://www.w3.org/1999/02/22-rdf-syntax-ns#"
   xmlns:svg="http://www.w3.org/2000/svg"
   xmlns="http://www.w3.org/2000/svg"
   xmlns:sodipodi="http://sodipodi.sourceforge.net/DTD/sodipodi-0.dtd"
   xmlns:inkscape="http://www.inkscape.org/namespaces/inkscape"
   width="1000"
   height="1352.901"
   viewBox="0 0 1000 1352.901"
   version="1.1"
   id="svg2388"
   inkscape:version="0.92.3 (2405546, 2018-03-11)"
   sodipodi:docname="monster_panic.svg">
  <title
     id="title3041">panic monster</title>
  <defs
     id="defs2382" />
  <sodipodi:namedview
     id="base"
     pagecolor="#ffffff"
     bordercolor="#666666"
     borderopacity="1.0"
     inkscape:pageopacity="0.0"
     inkscape:pageshadow="2"
     inkscape:zoom="0.35"
     inkscape:cx="1427.0953"
     inkscape:cy="420.71614"
     inkscape:document-units="px"
     inkscape:current-layer="layer1"
     showgrid="false"
     inkscape:pagecheckerboard="true"
     units="px"
     inkscape:window-width="1920"
     inkscape:window-height="1017"
     inkscape:window-x="1912"
     inkscape:window-y="-8"
     inkscape:window-maximized="1" />
  <metadata
     id="metadata2385">
    <rdf:RDF>
      <cc:Work
         rdf:about="">
        <dc:format>image/svg+xml</dc:format>
        <dc:type
           rdf:resource="http://purl.org/dc/dcmitype/StillImage" />
        <dc:title>panic monster</dc:title>
      </cc:Work>
    </rdf:RDF>
  </metadata>
  <g
     inkscape:label="Layer 1"
     inkscape:groupmode="layer"
     id="layer1"
     transform="translate(3405.7618,1512.5223)">
    <g
       id="g146"
       transform="matrix(7.3404922,0,0,-7.3404922,-3264.8176,-904.37711)">
      <path
         d="m 0,0 c -9.889,16.993 -15.553,48.602 -15.553,48.602 0,0 -4.9,5.108 -3.342,6.74 1.201,1.257 3.679,-2.938 3.679,-2.938 0,0 -1.763,5.504 -0.364,6.329 1.397,0.827 2.919,-5.386 2.919,-5.386 0,0 0.11,6.195 1.385,5.893 1.273,-0.304 1.547,-6.705 1.547,-6.705 0,0 2.149,2.344 3.262,1.435 1.274,-1.037 -2.015,-4.459 -2.015,-4.459 C -3.726,21.542 4.756,3.615 4.756,3.615 Z"
         style="fill:#268267;fill-opacity:1;fill-rule:nonzero;stroke:none"
         id="path148"
         inkscape:connector-curvature="0" />
    </g>
    <g
       id="g150"
       transform="matrix(7.3404922,0,0,-7.3404922,-3014.3952,-363.13033)">
      <path
         d="m 0,0 c -25.917,-14.086 -35.454,-27.87 -39.348,-27.723 -2.606,0.096 -8.93,10.897 -7.354,13.103 1.577,2.208 7.348,-4.162 7.348,-4.162 0,0 17.338,17.092 35.009,24.325 z"
         style="fill:#268267;fill-opacity:1;fill-rule:nonzero;stroke:none"
         id="path152"
         inkscape:connector-curvature="0" />
    </g>
    <g
       id="g154"
       transform="matrix(7.3404922,0,0,-7.3404922,-2897.8723,-1418.183)">
      <path
         d="M 0,0 C 0,0 5.26,4.169 2.965,6.203 0.668,8.235 -2.963,3.649 -2.963,3.649 c 0,0 4.23,9.356 -0.098,9.201 -4.33,-0.155 -3.705,-7.943 -3.705,-7.943 0,0 -3.438,7.65 -5.799,5.676 -2.362,-1.974 3.128,-8.952 3.128,-8.952 0,0 2.452,-5.809 9.437,-1.631"
         style="fill:#5baa17;fill-opacity:1;fill-rule:nonzero;stroke:none"
         id="path156"
         inkscape:connector-curvature="0" />
    </g>
    <g
       id="g158"
       transform="matrix(7.3404922,0,0,-7.3404922,-2645.2485,-715.16935)">
      <path
         d="m 0,0 c 2.45,-4.93 4.91,-9.48 6.601,-14.65 -2.521,-1.6 -19.371,-11.82 -43.471,-13.67 -26.18,-2.02 -47.5,7.07 -47.5,7.07 l -0.239,-0.05 c -1.281,6.09 -2,12.64 -2.241,19.49 l 0.54,0.02 c 0,0 12.63,-7.23 43.611,-7.76 C -14.43,-10.03 -1.949,-1.49 0,0"
         style="fill:#268267;fill-opacity:1;fill-rule:nonzero;stroke:none"
         id="path160"
         inkscape:connector-curvature="0" />
    </g>
    <g
       id="g162"
       transform="matrix(7.3404922,0,0,-7.3404922,-2705.3634,-903.89342)">
      <path
         d="m 0,0 c 0.47,-3.96 1.2,-7.47 2.1,-10.67 -31.02,-12.37 -68.47,-4.13 -80.201,1.8 l -0.139,0.01 c 0.32,4.39 0.79,8.83 1.389,13.3 3.661,-1.37 39.371,-14.09 76.601,-4.47 z"
         style="fill:#268267;fill-opacity:1;fill-rule:nonzero;stroke:none"
         id="path164"
         inkscape:connector-curvature="0" />
    </g>
    <g
       id="g166"
       transform="matrix(7.3404922,0,0,-7.3404922,-2589.3132,-580.69301)">
      <path
         d="m 0,0 c 4.09,-17.49 -1.77,-46.46 -50.2,-43.41 -24.75,1.56 -37.27,17.85 -42.029,40.43 l 0.239,0.05 c 0,0 21.32,-9.09 47.5,-7.07 24.1,1.85 40.95,12.07 43.47,13.67 C -0.64,2.48 -0.29,1.26 0,0"
         style="fill:#7ebc13;fill-opacity:1;fill-rule:nonzero;stroke:none"
         id="path168"
         inkscape:connector-curvature="0" />
    </g>
    <g
       id="g170"
       transform="matrix(7.3404922,0,0,-7.3404922,-2689.9513,-825.57034)">
      <path
         d="m 0,0 c 1.65,-5.82 3.87,-10.58 6.09,-15.04 -1.949,-1.49 -14.43,-10.03 -42.699,-9.55 -30.981,0.53 -43.611,7.76 -43.611,7.76 l -0.54,-0.02 c -0.21,6.03 -0.05,12.28 0.42,18.66 L -80.2,1.8 C -68.47,-4.13 -31.02,-12.37 0,0"
         style="fill:#66c6a8;fill-opacity:1;fill-rule:nonzero;stroke:none"
         id="path172"
         inkscape:connector-curvature="0" />
    </g>
    <g
       id="g174"
       transform="matrix(7.3404922,0,0,-7.3404922,-2705.3634,-903.89342)">
      <path
         d="m 0,0 -0.25,-0.03 c -37.23,-9.62 -72.94,3.1 -76.601,4.47 1.04,7.79 2.481,15.63 4.201,23.33 11.77,52.75 41.75,44.19 50.87,41.26 C -1.05,62.36 1.189,47.4 -0.41,14.91 -0.69,9.29 -0.5,4.38 0,0"
         style="fill:#7ebc13;fill-opacity:1;fill-rule:nonzero;stroke:none"
         id="path176"
         inkscape:connector-curvature="0" />
    </g>
    <g
       id="g178"
       transform="matrix(7.3404922,0,0,-7.3404922,-3108.5025,-1090.1225)">
      <path
         d="M 0,0 C 1.58,0.02 4.63,-5.33 4.79,-5.62 2.71,-6.24 -0.2,-6.21 -2.641,-5.34 l 0.09,0.27 c 0,0 0.921,5.05 2.551,5.07"
         style="fill:#ffffff;fill-opacity:1;fill-rule:nonzero;stroke:none"
         id="path180"
         inkscape:connector-curvature="0" />
    </g>
    <g
       id="g182"
       transform="matrix(7.3404922,0,0,-7.3404922,-3073.3408,-1048.8682)">
      <path
         d="M 0,0 C -0.16,0.29 -3.21,5.64 -4.79,5.62 -6.42,5.6 -7.341,0.55 -7.341,0.55 l -0.09,-0.27 c -3.679,1.32 -6.299,4.57 -3.429,10.47 1.92,3.94 5.019,6.14 8.33,7.34 l 0.04,-0.11 c 0,0 2.01,-6.15 3.8,-5.96 1.78,0.18 3.009,7.17 3.009,7.17 L 4.31,19.44 c 2.77,0.18 5.21,0.01 6.66,-0.01 3.719,-0.05 6.99,-0.41 9.84,-1.03 l -0.081,-0.33 c 0,0 -0.41,-7.47 1.061,-8.11 1.47,-0.63 6.109,5.59 6.109,5.59 L 28.09,15.9 C 35.109,12.28 37.02,6.48 34.39,1.49 31.279,-4.4 26.72,-3.7 22.22,-2.12 21.97,-1.34 20.12,4.27 18.6,4.41 16.979,4.55 14.1,0.79 14.1,0.79 L 14.069,0.62 C 9.359,1.65 4.399,1.6 0.46,0.15 0.31,0.1 0.159,0.05 0,0"
         style="fill:#1e120d;fill-opacity:1;fill-rule:nonzero;stroke:none"
         id="path184"
         inkscape:connector-curvature="0" />
    </g>
    <g
       id="g186"
       transform="matrix(7.3404922,0,0,-7.3404922,-2936.8106,-1081.2405)">
      <path
         d="m 0,0 c 1.521,-0.14 3.37,-5.75 3.62,-6.53 -1.48,0.52 -2.96,1.14 -4.38,1.65 -1.219,0.44 -2.48,0.8 -3.77,1.09 l 0.03,0.17 c 0,0 2.88,3.76 4.5,3.62"
         style="fill:#ffffff;fill-opacity:1;fill-rule:nonzero;stroke:none"
         id="path188"
         inkscape:connector-curvature="0" />
    </g>
    <g
       id="g190"
       transform="matrix(7.3404922,0,0,-7.3404922,-2867.1479,-1165.5849)">
      <path
         d="m 0,0 -0.19,-0.35 c 0,0 -4.64,-6.22 -6.11,-5.59 -1.471,0.64 -1.06,8.11 -1.06,8.11 L -7.28,2.5 C -4.431,1.9 -2.01,1.04 0,0"
         style="fill:#ffffff;fill-opacity:1;fill-rule:nonzero;stroke:none"
         id="path192"
         inkscape:connector-curvature="0" />
    </g>
    <g
       id="g194"
       transform="matrix(7.3404922,0,0,-7.3404922,-3041.707,-1191.5703)">
      <path
         d="m 0,0 0.01,-0.25 c 0,0 -1.23,-6.99 -3.01,-7.17 -1.79,-0.19 -3.8,5.96 -3.8,5.96 l -0.04,0.11 C -4.56,-0.51 -2.17,-0.15 0,0"
         style="fill:#ffffff;fill-opacity:1;fill-rule:nonzero;stroke:none"
         id="path196"
         inkscape:connector-curvature="0" />
    </g>
    <g
       id="g198"
       transform="matrix(7.3404922,0,0,-7.3404922,-3024.5743,-1267.7029)">
      <path
         d="m 0,0 c 0.04,-3.796 -2.965,-6.905 -6.711,-6.944 -3.747,-0.04 -6.817,3.002 -6.859,6.798 -0.04,3.795 2.965,6.904 6.711,6.944 C -3.111,6.838 -0.041,3.795 0,0"
         style="fill:#62a51b;fill-opacity:1;fill-rule:nonzero;stroke:none"
         id="path200"
         inkscape:connector-curvature="0" />
    </g>
    <g
       id="g202"
       transform="matrix(7.3404922,0,0,-7.3404922,-2905.3486,-1315.5666)">
      <path
         d="m 0,0 c 0.04,-3.795 -2.965,-6.904 -6.71,-6.944 -3.749,-0.04 -6.818,3.003 -6.859,6.798 -0.04,3.795 2.965,6.904 6.711,6.944 C -3.111,6.838 -0.041,3.794 0,0"
         style="fill:#62a51b;fill-opacity:1;fill-rule:nonzero;stroke:none"
         id="path204"
         inkscape:connector-curvature="0" />
    </g>
    <g
       id="g206"
       transform="matrix(7.3404922,0,0,-7.3404922,-2792.7821,-1231.4556)">
      <path
         d="m 0,0 c 0.04,-3.795 -2.964,-6.903 -6.712,-6.944 -3.746,-0.04 -6.817,3.004 -6.858,6.798 -0.04,3.795 2.965,6.904 6.712,6.944 C -3.112,6.838 -0.042,3.795 0,0"
         style="fill:#62a51b;fill-opacity:1;fill-rule:nonzero;stroke:none"
         id="path208"
         inkscape:connector-curvature="0" />
    </g>
    <g
       id="g210"
       transform="matrix(7.3404922,0,0,-7.3404922,-3034.9471,-1280.4915)">
      <path
         d="m 0,0 c 0.633,-3.487 -1.644,-6.818 -5.085,-7.442 -3.441,-0.625 -6.744,1.693 -7.378,5.179 -0.632,3.486 1.646,6.817 5.085,7.442 C -3.935,5.804 -0.633,3.485 0,0"
         style="fill:#ffffff;fill-opacity:1;fill-rule:nonzero;stroke:none"
         id="path212"
         inkscape:connector-curvature="0" />
    </g>
    <g
       id="g214"
       transform="matrix(7.3404922,0,0,-7.3404922,-2908.3523,-1319.9283)">
      <path
         d="m 0,0 c 0.037,-3.542 -2.768,-6.444 -6.264,-6.481 -3.499,-0.038 -6.364,2.803 -6.402,6.345 -0.037,3.542 2.768,6.444 6.264,6.481 C -2.904,6.383 -0.039,3.542 0,0"
         style="fill:#ffffff;fill-opacity:1;fill-rule:nonzero;stroke:none"
         id="path216"
         inkscape:connector-curvature="0" />
    </g>
    <g
       id="g218"
       transform="matrix(7.3404922,0,0,-7.3404922,-2799.0046,-1238.8533)">
      <path
         d="m 0,0 c 0.037,-3.542 -2.767,-6.443 -6.265,-6.481 -3.497,-0.038 -6.363,2.803 -6.401,6.345 -0.038,3.542 2.767,6.444 6.265,6.481 C -2.905,6.382 -0.039,3.542 0,0"
         style="fill:#ffffff;fill-opacity:1;fill-rule:nonzero;stroke:none"
         id="path220"
         inkscape:connector-curvature="0" />
    </g>
    <g
       id="g222"
       transform="matrix(7.3404922,0,0,-7.3404922,-3093.6997,-1275.5521)">
      <path
         d="M 0,0 C 0.328,1.088 0.004,2.148 -0.727,2.368 -1.455,2.591 -2.313,1.888 -2.643,0.803 -2.972,-0.287 -2.647,-1.346 -1.918,-1.568 -1.189,-1.789 -0.33,-1.087 0,0"
         style="fill:#1e120d;fill-opacity:1;fill-rule:nonzero;stroke:none"
         id="path224"
         inkscape:connector-curvature="0" />
    </g>
    <g
       id="g226"
       transform="matrix(7.3404922,0,0,-7.3404922,-2942.1009,-1330.4267)">
      <path
         d="M 0,0 C 0.328,1.088 0.005,2.147 -0.727,2.369 -1.454,2.59 -2.313,1.888 -2.643,0.802 -2.973,-0.286 -2.649,-1.346 -1.92,-1.568 -1.189,-1.789 -0.331,-1.087 0,0"
         style="fill:#1e120d;fill-opacity:1;fill-rule:nonzero;stroke:none"
         id="path228"
         inkscape:connector-curvature="0" />
    </g>
    <g
       id="g230"
       transform="matrix(7.3404922,0,0,-7.3404922,-2817.9511,-1238.7777)">
      <path
         d="M 0,0 C 0.33,1.087 0.006,2.147 -0.725,2.371 -1.454,2.59 -2.313,1.888 -2.644,0.801 -2.97,-0.285 -2.646,-1.346 -1.917,-1.568 -1.188,-1.789 -0.33,-1.088 0,0"
         style="fill:#1e120d;fill-opacity:1;fill-rule:nonzero;stroke:none"
         id="path232"
         inkscape:connector-curvature="0" />
    </g>
    <g
       id="g234"
       transform="matrix(7.3404922,0,0,-7.3404922,-2721.3341,-852.84322)">
      <path
         d="m 0,0 c 12.313,17.026 21.678,50.045 21.678,50.045 0,0 5.75,4.916 4.266,6.814 -1.144,1.464 -4.223,-2.734 -4.223,-2.734 0,0 2.457,5.665 1.058,6.692 -1.402,1.026 -3.675,-5.42 -3.675,-5.42 0,0 0.538,6.602 -0.85,6.412 -1.386,-0.188 -2.356,-6.968 -2.356,-6.968 0,0 -2.036,2.723 -3.318,1.875 -1.462,-0.97 1.675,-4.959 1.675,-4.959 C 6.237,22.514 -4.677,4.346 -4.677,4.346 c 0,0 -0.59,-2.428 1.281,-3.764 C -1.525,-0.754 0,0 0,0"
         style="fill:#268267;fill-opacity:1;fill-rule:nonzero;stroke:none"
         id="path236"
         inkscape:connector-curvature="0" />
    </g>
    <g
       id="g238"
       transform="matrix(7.3404922,0,0,-7.3404922,-2765.9511,-378.55346)">
      <path
         d="m 0,0 c 26.075,-8.489 40.168,6.314 43.845,5.021 2.46,-0.866 6.799,-11.792 4.639,-13.432 -2.158,-1.643 -7.284,4.889 -7.284,4.889 0,0 -12.744,-15.01 -44.677,-5.285 0,0 -1.361,2.423 -0.134,5.49 C -2.111,0.433 0,0 0,0"
         style="fill:#268267;fill-opacity:1;fill-rule:nonzero;stroke:none"
         id="path240"
         inkscape:connector-curvature="0" />
    </g>
    <g
       id="g242"
       transform="matrix(7.3404922,0,0,-7.3404922,-3016.7889,-1065.9253)">
      <path
         d="m 0,0 c 3.474,0 7.097,-0.642 10.477,-1.856 0.666,-0.239 1.344,-0.502 2.032,-0.768 2.451,-0.949 4.986,-1.931 7.259,-1.931 2.605,0 4.521,1.331 6.03,4.188 1.403,2.659 1.345,5.524 -0.167,8.067 -3.085,5.195 -11.241,8.257 -22.376,8.402 -0.367,0.005 -0.796,0.02 -1.276,0.036 -0.779,0.027 -1.698,0.058 -2.71,0.058 -8.706,0 -14.244,-2.685 -16.932,-8.208 C -19,5.242 -19.145,2.999 -18.095,1.32 c 1.414,-2.261 4.654,-3.068 7.212,-3.068 1.22,0 2.391,0.184 3.295,0.516 C -5.357,-0.415 -2.805,0 0,0 m 19.769,-6.555 h -10e-4 c -2.647,0 -5.359,1.051 -7.982,2.066 -0.671,0.26 -1.335,0.517 -1.985,0.751 C 6.635,-2.601 3.246,-2 0,-2 c -2.568,0 -4.89,-0.374 -6.898,-1.11 -1.137,-0.417 -2.514,-0.638 -3.985,-0.638 -3.095,0 -7.059,1.053 -8.908,4.008 -0.989,1.582 -1.736,4.36 0.329,8.603 3.057,6.281 9.184,9.333 18.731,9.333 1.038,0 1.98,-0.032 2.779,-0.059 0.464,-0.016 0.878,-0.03 1.233,-0.035 11.847,-0.155 20.62,-3.574 24.07,-9.38 C 29.23,5.557 29.308,1.998 27.567,-1.3 25.7,-4.836 23.149,-6.555 19.769,-6.555"
         style="fill:#e5e551;fill-opacity:1;fill-rule:nonzero;stroke:none"
         id="path244"
         inkscape:connector-curvature="0" />
    </g>
    <text
       xml:space="preserve"
       style="font-style:normal;font-variant:normal;font-weight:normal;font-stretch:normal;font-size:29.33333397px;line-height:150;font-family:sans-serif;-inkscape-font-specification:sans-serif;letter-spacing:0px;word-spacing:0px;fill:#000000;fill-opacity:1;stroke:none"
       x="-2954.2856"
       y="-214.62321"
       id="text3039"><tspan
         sodipodi:role="line"
         id="tspan3037"
         x="-2954.2856"
         y="-214.62321">image by Freepik (www.freepik.com)</tspan></text>
  </g>
</svg>
